<svg width="46" height="46" viewBox="0 0 46 46" fill="none" xmlns="http://www.w3.org/2000/svg">
    <rect width="46" height="46" rx="12" fill="white"/>
    <path d="M23.2031 31.4063C27.7336 31.4063 31.4062 27.7336 31.4062 23.2032C31.4062 18.6727 27.7336 15 23.2031 15C18.6726 15 15 18.6727 15 23.2032C15 27.7336 18.6726 31.4063 23.2031 31.4063Z" stroke="#1C1C1C" stroke-width="1.4" stroke-linecap="round" stroke-linejoin="round"/>
    <path d="M23.2031 27.4688V22.875" stroke="#1C1C1C" stroke-width="1.5" stroke-linecap="round" stroke-linejoin="round"/>
    <path d="M23.2031 20.5782C23.6863 20.5782 24.0781 20.1865 24.0781 19.7032C24.0781 19.22 23.6863 18.8282 23.2031 18.8282C22.7198 18.8282 22.3281 19.22 22.3281 19.7032C22.3281 20.1865 22.7198 20.5782 23.2031 20.5782Z" fill="#1C1C1C"/>
    </svg>
    