<svg xmlns="http://www.w3.org/2000/svg">
    <symbol id="rocket">
        <path
            fill="currentColor"
            d="M12.4688 18.375C12.4688 18.549 12.3996 18.716 12.2766 18.839C12.1535 18.9621 11.9866 19.0312 11.8125 19.0312H9.18754C9.01349 19.0312 8.84657 18.9621 8.7235 18.839C8.60043 18.716 8.53129 18.549 8.53129 18.375C8.53129 18.201 8.60043 18.034 8.7235 17.911C8.84657 17.7879 9.01349 17.7188 9.18754 17.7188H11.8125C11.9866 17.7188 12.1535 17.7879 12.2766 17.911C12.3996 18.034 12.4688 18.201 12.4688 18.375ZM10.5 9.1875C10.6947 9.1875 10.885 9.12977 11.0469 9.0216C11.2088 8.91344 11.335 8.7597 11.4095 8.57983C11.484 8.39996 11.5035 8.20203 11.4655 8.01108C11.4275 7.82013 11.3338 7.64473 11.1961 7.50707C11.0584 7.3694 10.883 7.27565 10.6921 7.23767C10.5011 7.19968 10.3032 7.21918 10.1233 7.29368C9.94346 7.36819 9.78973 7.49436 9.68156 7.65624C9.5734 7.81812 9.51566 8.00843 9.51566 8.20313C9.51566 8.4642 9.61937 8.71458 9.80398 8.89918C9.98859 9.08379 10.239 9.1875 10.5 9.1875ZM18.3439 12.7829L17.33 17.3463C17.2819 17.563 17.1796 17.764 17.0327 17.9304C16.8858 18.0969 16.6991 18.2233 16.4901 18.298C16.281 18.3726 16.0564 18.393 15.8374 18.3573C15.6183 18.3216 15.4118 18.2308 15.2373 18.0936L13.0028 16.4062H7.99891L5.76273 18.0936C5.58824 18.2308 5.3818 18.3216 5.16272 18.3573C4.94364 18.393 4.71907 18.3726 4.51002 18.298C4.30097 18.2233 4.11427 18.0969 3.96738 17.9304C3.8205 17.764 3.71822 17.563 3.67012 17.3463L2.65621 12.7829C2.6132 12.5871 2.61538 12.384 2.66256 12.1892C2.70975 11.9943 2.80072 11.8127 2.92855 11.6583L5.27137 8.84789C5.35 7.81507 5.58711 6.8005 5.97437 5.83981C7.03258 3.18691 8.9275 1.5225 9.69613 0.930235C9.9262 0.751968 10.209 0.655228 10.5 0.655228C10.7911 0.655228 11.0739 0.751968 11.3039 0.930235C12.0701 1.5225 13.9675 3.18691 15.0257 5.83981C15.413 6.8005 15.6501 7.81507 15.7287 8.84789L18.0715 11.6583C18.1994 11.8127 18.2903 11.9943 18.3375 12.1892C18.3847 12.384 18.3869 12.5871 18.3439 12.7829ZM8.15641 15.0938H12.8437C14.5762 12.0143 14.9002 9.0661 13.8067 6.32625C12.842 3.90797 11.0324 2.37891 10.5 1.96875C9.96602 2.37891 8.15641 3.90797 7.19172 6.32625C6.09988 9.0661 6.42391 12.0143 8.15641 15.0938ZM6.92594 15.5736C6.04273 13.9686 5.5068 12.3911 5.31812 10.8413L3.93754 12.4983L4.95144 17.0625L4.96621 17.0518L6.92594 15.5736ZM17.0625 12.4983L15.682 10.8413C15.4949 12.3878 14.9601 13.9653 14.0774 15.5736L16.0339 17.0502L16.0486 17.0609L17.0625 12.4983Z" />
    </symbol>
    <symbol id="statistics">
        <path
            d="M6.125 14.875V11.375M10.5 14.875V6.125M14.875 14.875V9.625M2.1875 10.5C2.1875 6.58175 2.1875 4.62175 3.40463 3.40463C4.62175 2.1875 6.58087 2.1875 10.5 2.1875C14.4183 2.1875 16.3782 2.1875 17.5954 3.40463C18.8125 4.62175 18.8125 6.58087 18.8125 10.5C18.8125 14.4183 18.8125 16.3782 17.5954 17.5954C16.3782 18.8125 14.4191 18.8125 10.5 18.8125C6.58175 18.8125 4.62175 18.8125 3.40463 17.5954C2.1875 16.3782 2.1875 14.4191 2.1875 10.5Z"
            stroke="currentColor" stroke-width="1.3125" stroke-linecap="round"
            stroke-linejoin="round" />
    </symbol>
    <symbol id="profile">
        <path
            fill="currentColor"
            d="M2.625 4.59375C2.625 4.0716 2.83242 3.57085 3.20163 3.20163C3.57085 2.83242 4.0716 2.625 4.59375 2.625H5.90625C6.0803 2.625 6.24722 2.55586 6.37029 2.43279C6.49336 2.30972 6.5625 2.1428 6.5625 1.96875C6.5625 1.7947 6.49336 1.62778 6.37029 1.50471C6.24722 1.38164 6.0803 1.3125 5.90625 1.3125H4.59375C3.72351 1.3125 2.88891 1.6582 2.27356 2.27356C1.6582 2.88891 1.3125 3.72351 1.3125 4.59375V5.90625C1.3125 6.0803 1.38164 6.24722 1.50471 6.37029C1.62778 6.49336 1.7947 6.5625 1.96875 6.5625C2.1428 6.5625 2.30972 6.49336 2.43279 6.37029C2.55586 6.24722 2.625 6.0803 2.625 5.90625V4.59375ZM4.14881 18.3251C4.29319 18.3584 4.4415 18.375 4.59375 18.375H5.90625C6.0803 18.375 6.24722 18.4441 6.37029 18.5672C6.49336 18.6903 6.5625 18.8572 6.5625 19.0312C6.5625 19.2053 6.49336 19.3722 6.37029 19.4953C6.24722 19.6184 6.0803 19.6875 5.90625 19.6875H4.59375C3.72351 19.6875 2.88891 19.3418 2.27356 18.7264C1.6582 18.1111 1.3125 17.2765 1.3125 16.4062V15.0938C1.3125 14.9197 1.38164 14.7528 1.50471 14.6297C1.62778 14.5066 1.7947 14.4375 1.96875 14.4375C2.1428 14.4375 2.30972 14.5066 2.43279 14.6297C2.55586 14.7528 2.625 14.9197 2.625 15.0938V16.4062C2.62476 16.8512 2.77527 17.2832 3.052 17.6316C3.32873 17.9801 3.71534 18.2246 4.14881 18.3251ZM16.4062 2.625C16.9284 2.625 17.4292 2.83242 17.7984 3.20163C18.1676 3.57085 18.375 4.0716 18.375 4.59375V5.90625C18.375 6.0803 18.4441 6.24722 18.5672 6.37029C18.6903 6.49336 18.8572 6.5625 19.0312 6.5625C19.2053 6.5625 19.3722 6.49336 19.4953 6.37029C19.6184 6.24722 19.6875 6.0803 19.6875 5.90625V4.59375C19.6875 3.72351 19.3418 2.88891 18.7264 2.27356C18.1111 1.6582 17.2765 1.3125 16.4062 1.3125H15.0938C14.9197 1.3125 14.7528 1.38164 14.6297 1.50471C14.5066 1.62778 14.4375 1.7947 14.4375 1.96875C14.4375 2.1428 14.5066 2.30972 14.6297 2.43279C14.7528 2.55586 14.9197 2.625 15.0938 2.625H16.4062ZM16.8512 18.3251C16.7053 18.3586 16.556 18.3753 16.4062 18.375H15.0938C14.9197 18.375 14.7528 18.4441 14.6297 18.5672C14.5066 18.6903 14.4375 18.8572 14.4375 19.0312C14.4375 19.2053 14.5066 19.3722 14.6297 19.4953C14.7528 19.6184 14.9197 19.6875 15.0938 19.6875H16.4062C17.2765 19.6875 18.1111 19.3418 18.7264 18.7264C19.3418 18.1111 19.6875 17.2765 19.6875 16.4062V15.0938C19.6875 14.9197 19.6184 14.7528 19.4953 14.6297C19.3722 14.5066 19.2053 14.4375 19.0312 14.4375C18.8572 14.4375 18.6903 14.5066 18.5672 14.6297C18.4441 14.7528 18.375 14.9197 18.375 15.0938V16.4062C18.3752 16.8512 18.2247 17.2832 17.948 17.6316C17.6713 17.9801 17.2847 18.2246 16.8512 18.3251ZM4.59375 17.0625C4.4197 17.0625 4.25278 16.9934 4.12971 16.8703C4.00664 16.7472 3.9375 16.5803 3.9375 16.4062C3.9375 15.8841 4.14492 15.3833 4.51413 15.0141C4.88335 14.6449 5.38411 14.4375 5.90625 14.4375H15.0938C15.6159 14.4375 16.1167 14.6449 16.4859 15.0141C16.8551 15.3833 17.0625 15.8841 17.0625 16.4062C17.0625 16.5803 16.9934 16.7472 16.8703 16.8703C16.7472 16.9934 16.5803 17.0625 16.4062 17.0625H15.75V16.4062C15.75 16.2322 15.6809 16.0653 15.5578 15.9422C15.4347 15.8191 15.2678 15.75 15.0938 15.75H5.90625C5.7322 15.75 5.56528 15.8191 5.44221 15.9422C5.31914 16.0653 5.25 16.2322 5.25 16.4062V17.0625H4.59375ZM14.1094 8.85938C14.1094 7.90211 13.7291 6.98405 13.0522 6.30716C12.3753 5.63027 11.4573 5.25 10.5 5.25C9.54273 5.25 8.62468 5.63027 7.94779 6.30716C7.2709 6.98405 6.89062 7.90211 6.89062 8.85938C6.89062 9.81664 7.2709 10.7347 7.94779 11.4116C8.62468 12.0885 9.54273 12.4688 10.5 12.4688C11.4573 12.4688 12.3753 12.0885 13.0522 11.4116C13.7291 10.7347 14.1094 9.81664 14.1094 8.85938ZM8.20312 8.85938C8.20312 8.25021 8.44512 7.66599 8.87586 7.23524C9.30661 6.80449 9.89083 6.5625 10.5 6.5625C11.1092 6.5625 11.6934 6.80449 12.1241 7.23524C12.5549 7.66599 12.7969 8.25021 12.7969 8.85938C12.7969 9.46854 12.5549 10.0528 12.1241 10.4835C11.6934 10.9143 11.1092 11.1562 10.5 11.1562C9.89083 11.1562 9.30661 10.9143 8.87586 10.4835C8.44512 10.0528 8.20312 9.46854 8.20312 8.85938Z" />
    </symbol>
    <symbol id="money-case">
        <path
            stroke="currentColor"
            d="M14 5.25C14 3.59975 14 2.7755 13.4872 2.26275C12.9745 1.75 12.1503 1.75 10.5 1.75C8.84975 1.75 8.0255 1.75 7.51275 2.26275C7 2.7755 7 3.59975 7 5.25M1.75 12.25C1.75 8.95038 1.75 7.30012 2.7755 6.2755C3.80012 5.25 5.45038 5.25 8.75 5.25H12.25C15.5496 5.25 17.1999 5.25 18.2245 6.2755C19.25 7.30012 19.25 8.95038 19.25 12.25C19.25 15.5496 19.25 17.1999 18.2245 18.2245C17.1999 19.25 15.5496 19.25 12.25 19.25H8.75C5.45038 19.25 3.80012 19.25 2.7755 18.2245C1.75 17.1999 1.75 15.5496 1.75 12.25Z"
            stroke-width="1.2" />
        <path
            stroke="currentColor"
            d="M10.5 15.1664C11.4669 15.1664 12.25 14.5136 12.25 13.7086C12.25 12.9036 11.4669 12.25 10.5 12.25C9.53312 12.25 8.75 11.5973 8.75 10.7914C8.75 9.98638 9.53312 9.33362 10.5 9.33362M10.5 15.1664C9.53312 15.1664 8.75 14.5136 8.75 13.7086M10.5 15.1664V15.75M10.5 9.33362V8.75M10.5 9.33362C11.4669 9.33362 12.25 9.98638 12.25 10.7914"
            stroke-width="1.2" stroke-linecap="round" />
    </symbol>
    <symbol id="chart">
        <path
            stroke="currentColor"
            d="M18.375 10.5C18.858 10.5 19.2544 10.1071 19.2063 9.62674C19.0045 7.61789 18.1143 5.74061 16.6866 4.31315C15.2588 2.88569 13.3813 1.9959 11.3724 1.79462C10.8911 1.74649 10.4991 2.14287 10.4991 2.62587V9.62587C10.4991 9.85793 10.5913 10.0805 10.7554 10.2446C10.9195 10.4087 11.1421 10.5009 11.3741 10.5009L18.375 10.5Z"
            stroke-width="1.5" stroke-linecap="round" stroke-linejoin="round" />
        <path
            stroke="currentColor"
            d="M18.5587 13.9037C18.0021 15.2201 17.1314 16.3802 16.0229 17.2824C14.9143 18.1846 13.6017 18.8015 12.1996 19.0792C10.7976 19.3568 9.34886 19.2869 7.98011 18.8753C6.61137 18.4637 5.36428 17.7232 4.34788 16.7183C3.33147 15.7134 2.5767 14.4749 2.14954 13.1109C1.72239 11.747 1.63585 10.2992 1.89751 8.89403C2.15917 7.48891 2.76105 6.16928 3.65053 5.0505C4.54001 3.93173 5.69001 3.04788 6.99999 2.47623"
            stroke-width="1.5" stroke-linecap="round" stroke-linejoin="round" />
    </symbol>
    <symbol id="time-case">
        <path
            stroke="currentColor"
            d="M9.63112 18.375H8.40437C5.2675 18.375 3.6995 18.375 2.72475 17.3819C1.75 16.3887 1.75 14.7901 1.75 11.5937C1.75 8.39737 1.75 6.79875 2.72475 5.80563C3.6995 4.8125 5.2675 4.8125 8.40437 4.8125H11.732C14.8689 4.8125 16.4377 4.8125 17.4125 5.80563C18.1624 6.5695 18.3347 7.69212 18.375 9.625"
            stroke-width="1.25" fill="none" stroke-linecap="round" stroke-linejoin="round" />
        <path
            stroke="currentColor"
            d="M16.4938 16.4938L15.3125 15.7063V13.7375M14 4.8125L13.9125 4.54125C13.4802 3.19375 13.2633 2.52 12.7479 2.135C12.2316 1.75 11.5474 1.75 10.178 1.75H9.947C8.57762 1.75 7.8925 1.75 7.37712 2.135C6.86087 2.52 6.64475 3.19375 6.21162 4.54125L6.125 4.8125M11.375 15.3125C11.375 15.8296 11.4768 16.3416 11.6747 16.8193C11.8726 17.297 12.1626 17.7311 12.5283 18.0967C12.8939 18.4624 13.328 18.7524 13.8057 18.9503C14.2834 19.1482 14.7954 19.25 15.3125 19.25C15.8296 19.25 16.3416 19.1482 16.8193 18.9503C17.297 18.7524 17.7311 18.4624 18.0967 18.0967C18.4624 17.7311 18.7524 17.297 18.9503 16.8193C19.1482 16.3416 19.25 15.8296 19.25 15.3125C19.25 14.2682 18.8352 13.2667 18.0967 12.5283C17.3583 11.7898 16.3568 11.375 15.3125 11.375C14.2682 11.375 13.2667 11.7898 12.5283 12.5283C11.7898 13.2667 11.375 14.2682 11.375 15.3125Z"
            stroke-width="1.25" stroke-linecap="round" stroke-linejoin="round" />
    </symbol>
    <symbol id="news">
        <path
            stroke="currentColor"
            d="M15.75 13.625V8.375C15.75 5.9005 15.75 4.66237 14.9809 3.89412C14.2126 3.125 12.9745 3.125 10.5 3.125H7C4.5255 3.125 3.28737 3.125 2.51912 3.89412C1.75 4.66237 1.75 5.9005 1.75 8.375V13.625C1.75 16.0995 1.75 17.3376 2.51912 18.1059C3.28737 18.875 4.5255 18.875 7 18.875H17.5M5.25 7.5H12.25M5.25 11H12.25M5.25 14.5H8.75"
            stroke-linecap="round" stroke-linejoin="round" />
        <path
            stroke="currentColor"
            d="M15.75 7.5H16.625C17.8623 7.5 18.4809 7.5 18.865 7.885C19.25 8.26912 19.25 8.88775 19.25 10.125V17.125C19.25 17.5891 19.0656 18.0342 18.7374 18.3624C18.4092 18.6906 17.9641 18.875 17.5 18.875C17.0359 18.875 16.5908 18.6906 16.2626 18.3624C15.9344 18.0342 15.75 17.5891 15.75 17.125V7.5Z"
            stroke-linecap="round" stroke-linejoin="round" />
    </symbol>
    <symbol id="users">
        <path
            stroke="currentColor"
            d="M16.289 18H16.7178C17.724 18 18.5247 17.5415 19.243 16.901C21.0683 15.2726 16.7773 13.625 15.3125 13.625M13.5625 4.93537C13.7615 4.89512 13.9671 4.875 14.1794 4.875C15.7719 4.875 17.0625 6.05013 17.0625 7.5C17.0625 8.94987 15.7719 10.125 14.1794 10.125C13.9671 10.125 13.7615 10.1049 13.5625 10.0646M3.92091 14.5971C2.88929 15.1501 0.184664 16.2789 1.83229 17.6911C2.63729 18.3815 3.53329 18.875 4.66029 18.875H11.0898C12.2168 18.875 13.1128 18.3815 13.9178 17.6911C15.5654 16.2789 12.8608 15.1501 11.8292 14.5971C9.40979 13.3013 6.34029 13.3013 3.92091 14.5971ZM11.375 7.0625C11.375 7.99076 11.0063 8.881 10.3499 9.53737C9.69353 10.1938 8.8033 10.5625 7.87504 10.5625C6.94678 10.5625 6.05654 10.1938 5.40016 9.53737C4.74379 8.881 4.37504 7.99076 4.37504 7.0625C4.37504 6.13424 4.74379 5.244 5.40016 4.58763C6.05654 3.93125 6.94678 3.5625 7.87504 3.5625C8.8033 3.5625 9.69353 3.93125 10.3499 4.58763C11.0063 5.244 11.375 6.13424 11.375 7.0625Z"
            stroke-width="1.3125" stroke-linecap="round" stroke-linejoin="round" />
    </symbol>
    <symbol id="instagram">
        <path
            d="M11.3995 1.75C12.3839 1.75262 12.8835 1.75788 13.3149 1.77013L13.4846 1.77625C13.6806 1.78325 13.874 1.792 14.1076 1.8025C15.0386 1.84625 15.6739 1.99325 16.2313 2.20938C16.8088 2.43163 17.2953 2.73262 17.7818 3.21825C18.2269 3.65552 18.5712 4.18466 18.7906 4.76875C19.0068 5.32612 19.1538 5.96137 19.1975 6.89325C19.208 7.126 19.2168 7.31938 19.2238 7.51625L19.229 7.686C19.2421 8.1165 19.2474 8.61613 19.2491 9.6005L19.25 10.2533V11.3995C19.2521 12.0377 19.2454 12.676 19.2299 13.314L19.2246 13.4837C19.2176 13.6806 19.2089 13.874 19.1984 14.1067C19.1546 15.0386 19.0059 15.673 18.7906 16.2312C18.5712 16.8153 18.2269 17.3445 17.7818 17.7817C17.3445 18.2269 16.8153 18.5712 16.2313 18.7906C15.6739 19.0068 15.0386 19.1538 14.1076 19.1975L13.4846 19.2237L13.3149 19.229C12.8835 19.2412 12.3839 19.2474 11.3995 19.2491L10.7468 19.25H9.60138C8.96286 19.2523 8.32434 19.2455 7.68601 19.2299L7.51626 19.2246C7.30854 19.2168 7.10087 19.2077 6.89326 19.1975C5.96226 19.1538 5.32701 19.0068 4.76876 18.7906C4.18499 18.571 3.65615 18.2268 3.21913 17.7817C2.77371 17.3446 2.4291 16.8154 2.20938 16.2312C1.99326 15.6739 1.84626 15.0386 1.80251 14.1067L1.77626 13.4837L1.77188 13.314C1.75575 12.676 1.74846 12.0377 1.75001 11.3995V9.6005C1.74759 8.96228 1.754 8.32405 1.76926 7.686L1.77538 7.51625C1.78238 7.31938 1.79113 7.126 1.80163 6.89325C1.84538 5.96137 1.99238 5.327 2.20851 4.76875C2.42874 4.18442 2.77395 3.65526 3.22001 3.21825C3.65677 2.77336 4.1853 2.42906 4.76876 2.20938C5.32701 1.99325 5.96138 1.84625 6.89326 1.8025C7.12601 1.792 7.32026 1.78325 7.51626 1.77625L7.68601 1.771C8.32405 1.75545 8.96228 1.74874 9.60051 1.75087L11.3995 1.75ZM10.5 6.125C9.33969 6.125 8.22689 6.58594 7.40642 7.40641C6.58595 8.22688 6.12501 9.33968 6.12501 10.5C6.12501 11.6603 6.58595 12.7731 7.40642 13.5936C8.22689 14.4141 9.33969 14.875 10.5 14.875C11.6603 14.875 12.7731 14.4141 13.5936 13.5936C14.4141 12.7731 14.875 11.6603 14.875 10.5C14.875 9.33968 14.4141 8.22688 13.5936 7.40641C12.7731 6.58594 11.6603 6.125 10.5 6.125ZM10.5 7.875C10.8447 7.87494 11.1861 7.94278 11.5046 8.07465C11.8231 8.20651 12.1125 8.39982 12.3563 8.64354C12.6001 8.88725 12.7935 9.17659 12.9255 9.49505C13.0574 9.81351 13.1254 10.1548 13.1254 10.4996C13.1255 10.8443 13.0577 11.1856 12.9258 11.5041C12.7939 11.8226 12.6006 12.1121 12.3569 12.3558C12.1132 12.5996 11.8239 12.793 11.5054 12.925C11.1869 13.057 10.8456 13.1249 10.5009 13.125C9.80469 13.125 9.13701 12.8484 8.64473 12.3562C8.15245 11.8639 7.87589 11.1962 7.87589 10.5C7.87589 9.80381 8.15245 9.13613 8.64473 8.64384C9.13701 8.15156 9.80469 7.875 10.5009 7.875M15.0946 4.8125C14.8046 4.8125 14.5264 4.92773 14.3212 5.13285C14.1161 5.33797 14.0009 5.61617 14.0009 5.90625C14.0009 6.19633 14.1161 6.47453 14.3212 6.67965C14.5264 6.88477 14.8046 7 15.0946 7C15.3847 7 15.6629 6.88477 15.868 6.67965C16.0732 6.47453 16.1884 6.19633 16.1884 5.90625C16.1884 5.61617 16.0732 5.33797 15.868 5.13285C15.6629 4.92773 15.3847 4.8125 15.0946 4.8125Z"
            fill="currentColor" />
    </symbol>
    <symbol id="discord">
        <path
            d="M16.8612 4.66375C15.6975 4.12125 14.4375 3.7275 13.125 3.5C13.1019 3.50033 13.0799 3.50976 13.0637 3.52625C12.9062 3.815 12.7225 4.19125 12.6 4.48C11.2078 4.27013 9.79212 4.27013 8.39998 4.48C8.27748 4.1825 8.09373 3.815 7.92748 3.52625C7.91873 3.50875 7.89248 3.5 7.86623 3.5C6.55373 3.7275 5.30248 4.12125 4.12998 4.66375C4.12123 4.66375 4.11248 4.6725 4.10373 4.68125C1.72373 8.2425 1.06748 11.7075 1.39123 15.1375C1.39123 15.155 1.39998 15.1725 1.41748 15.1813C2.99248 16.3363 4.50623 17.0363 6.00248 17.5C6.02873 17.5087 6.05498 17.5 6.06373 17.4825C6.41373 17.0012 6.72873 16.4937 6.99998 15.96C7.01748 15.925 6.99998 15.89 6.96498 15.8812C6.46623 15.6887 5.99373 15.4613 5.52998 15.1988C5.49498 15.1813 5.49498 15.1287 5.52123 15.1025C5.61748 15.0325 5.71373 14.9538 5.80998 14.8837C5.82748 14.8663 5.85373 14.8663 5.87123 14.875C8.88123 16.2487 12.1275 16.2487 15.1025 14.875C15.12 14.8663 15.1462 14.8663 15.1637 14.8837C15.26 14.9625 15.3562 15.0325 15.4525 15.1112C15.4875 15.1375 15.4875 15.19 15.4437 15.2075C14.9887 15.4787 14.5075 15.6975 14.0087 15.89C13.9737 15.8988 13.965 15.9425 13.9737 15.9688C14.2537 16.5025 14.5687 17.01 14.91 17.4913C14.9362 17.5 14.9625 17.5087 14.9887 17.5C16.4937 17.0363 18.0075 16.3363 19.5825 15.1813C19.6 15.1725 19.6087 15.155 19.6087 15.1375C19.9937 11.1737 18.97 7.735 16.8962 4.68125C16.8875 4.6725 16.8787 4.66375 16.8612 4.66375ZM7.45498 13.0462C6.55373 13.0462 5.80123 12.215 5.80123 11.1912C5.80123 10.1675 6.53623 9.33625 7.45498 9.33625C8.38248 9.33625 9.11748 10.1762 9.10873 11.1912C9.10873 12.215 8.37373 13.0462 7.45498 13.0462ZM13.5537 13.0462C12.6525 13.0462 11.9 12.215 11.9 11.1912C11.9 10.1675 12.635 9.33625 13.5537 9.33625C14.4812 9.33625 15.2162 10.1762 15.2075 11.1912C15.2075 12.215 14.4812 13.0462 13.5537 13.0462Z"
            fill="currentColor" />
    </symbol>
    <symbol id="telegram">
        <g clip-path="url(#clip0_2_614)">
            <path
                d="M19.2952 1.86307L0.690181 9.07468C-0.058518 9.41051 -0.311749 10.083 0.50922 10.448L5.28221 11.9727L16.8227 4.8036C17.4528 4.35353 18.0979 4.47355 17.5428 4.96865L7.63109 13.9894L7.31974 17.807C7.60812 18.3964 8.13616 18.3992 8.47298 18.1062L11.2152 15.4981L15.9117 19.0331C17.0025 19.6822 17.596 19.2633 17.8307 18.0735L20.9112 3.41169C21.2311 1.94723 20.6856 1.30197 19.2952 1.86307Z"
                fill="currentColor" />
        </g>
        <defs>
            <clipPath id="clip0_2_614">
                <rect width="21" height="21" fill="currentColor" />
            </clipPath>
        </defs>
    </symbol>
    <symbol id="log-out" viewBox="0 0 24 25">
        <path d="M19.1893 12.5L15.7825 15.9069L15.7822 15.9072C15.6415 16.0478 15.5625 16.2386 15.5625 16.4375C15.5625 16.4495 15.5628 16.4615 15.5634 16.4735C15.5723 16.6598 15.6503 16.836 15.7822 16.9678C15.9228 17.1085 16.1136 17.1875 16.3125 17.1875C16.5114 17.1875 16.7022 17.1085 16.8428 16.9678L16.8431 16.9675L20.7803 13.0303C20.921 12.8897 21 12.6989 21 12.5C21 12.3011 20.921 12.1103 20.7803 11.9697L16.8429 8.03226C16.7022 7.89152 16.5114 7.8125 16.3125 7.8125C16.1136 7.8125 15.9228 7.89152 15.7822 8.03217C15.6415 8.17282 15.5625 8.36359 15.5625 8.5625C15.5625 8.76141 15.6415 8.95218 15.7822 9.09283L19.1893 12.5Z" fill="currentColor"/>
        <path d="M9.75 13.25H20.25C20.6642 13.25 21 12.9142 21 12.5C21 12.0858 20.6642 11.75 20.25 11.75H9.75C9.33579 11.75 9 12.0858 9 12.5C9 12.9142 9.33579 13.25 9.75 13.25Z" fill="currentColor"/>
        <path d="M4.5 5H9.75C10.1642 5 10.5 4.66421 10.5 4.25C10.5 3.83579 10.1642 3.5 9.75 3.5H4.5C3.87868 3.5 3.43934 3.93934 3.43934 3.93934C3 4.37868 3 5 3 5V20C3 20.6213 3.43934 21.0607 3.43934 21.0607C3.87868 21.5 4.5 21.5 4.5 21.5H9.75C10.1642 21.5 10.5 21.1642 10.5 20.75C10.5 20.3358 10.1642 20 9.75 20H4.5V5Z" fill="currentColor"/>
    </symbol>
    <symbol id="arrow-down">
        <path d="M13.9 6.05L9.00001 10.95L4.10001 6.05" stroke="currentColor" stroke-width="1.5"
            stroke-linecap="round" stroke-linejoin="round" />
    </symbol>
    <symbol id="monets">
        <g clip-path="url(#clip0_2_566)">
            <path
                d="M15.4286 12.8571C19.6886 12.8571 23.1429 11.3229 23.1429 9.42857C23.1429 7.53429 19.6886 6 15.4286 6C11.1686 6 7.71436 7.53429 7.71436 9.42857C7.71436 11.3229 11.1686 12.8571 15.4286 12.8571Z"
                stroke="currentColor" stroke-width="1.6" stroke-linecap="round"
                stroke-linejoin="round" />
            <path
                d="M7.71436 9.42857V19.7143C7.71436 21.6 11.1429 23.1429 15.4286 23.1429C19.7144 23.1429 23.1429 21.6 23.1429 19.7143V9.42857"
                stroke="currentColor" stroke-width="1.6" stroke-linecap="round"
                stroke-linejoin="round" />
            <path
                d="M23.1429 14.5714C23.1429 16.4571 19.7143 18 15.4286 18C11.1429 18 7.71432 16.4571 7.71432 14.5714M15.2572 2.58686C13.254 1.35064 10.9223 0.752771 8.57146 0.872572C4.30289 0.872572 0.857178 2.41543 0.857178 4.30114C0.857178 5.31257 1.85146 6.22114 3.42861 6.87257"
                stroke="currentColor" stroke-width="1.6" stroke-linecap="round"
                stroke-linejoin="round" />
            <path d="M3.42861 17.1583C1.85146 16.5069 0.857178 15.5983 0.857178 14.5869V4.30114"
                stroke="currentColor" stroke-width="1.6" stroke-linecap="round"
                stroke-linejoin="round" />
            <path d="M3.42861 12.0154C1.85146 11.364 0.857178 10.4554 0.857178 9.444"
                stroke="currentColor" stroke-width="1.6" stroke-linecap="round"
                stroke-linejoin="round" />
        </g>
        <defs>
            <clipPath id="clip0_2_566">
                <rect width="24" height="24" fill="currentColor" />
            </clipPath>
        </defs>
    </symbol>
    <symbol id="plus">
        <path d="M5 10H10M10 10H15M10 10V5M10 10V15" stroke="currentColor" stroke-width="1.3125"
            stroke-linecap="round" stroke-linejoin="round" />
    </symbol>
    <symbol id="minus">
        <path d="M5 10H10H15" stroke="currentColor" stroke-width="1.3125" stroke-linecap="round"
            stroke-linejoin="round" />
    </symbol>
    <symbol id="done">
        <path d="M5 14L9 17L18 6" stroke="currentColor" stroke-width="2" />
    </symbol>
    <symbol id="file">
        <path d="M2.875 4.3125V18.6806" stroke="currentColor" stroke-width="1.43678"
            stroke-linecap="round" />
        <path d="M20.125 8.625V18.6875" stroke="currentColor" stroke-width="1.43678"
            stroke-linecap="round" stroke-linejoin="round" />
        <path d="M5.75 1.4375H12.9375" stroke="currentColor" stroke-width="1.43678"
            stroke-linecap="round" stroke-linejoin="round" />
        <path d="M5.75 21.5625H17.25" stroke="currentColor" stroke-width="1.43678"
            stroke-linecap="round" />
        <path d="M20.125 18.6875C20.1329 20.1234 18.6875 21.5625 17.25 21.5625"
            stroke="currentColor" stroke-width="1.43678" stroke-linecap="round"
            stroke-linejoin="round" />
        <path d="M2.875 18.6875C2.875 20.125 4.3125 21.5625 5.75 21.5625" stroke="currentColor"
            stroke-width="1.43678" stroke-linecap="round" stroke-linejoin="round" />
        <path d="M2.875 4.31041C2.875 2.875 4.3125 1.46951 5.75 1.4375" stroke="currentColor"
            stroke-width="1.43678" stroke-linecap="round" stroke-linejoin="round" />
        <path d="M20.1171 8.63145L12.9375 1.4375" stroke="currentColor" stroke-width="1.43678"
            stroke-linecap="round" stroke-linejoin="round" />
        <path d="M12.9375 5.75C12.9419 7.17968 14.3808 8.625 15.8125 8.625" stroke="currentColor"
            stroke-width="1.43678" stroke-linecap="round" stroke-linejoin="round" />
        <path d="M12.9375 5.75V1.4375" stroke="currentColor" stroke-width="1.43678"
            stroke-linecap="round" stroke-linejoin="round" />
        <path d="M15.8125 8.625H20.125" stroke="currentColor" stroke-width="1.43678"
            stroke-linecap="round" stroke-linejoin="round" />
        <path d="M5.75 18.6875H10.0625" stroke="currentColor" stroke-width="1.4375"
            stroke-linecap="round" stroke-linejoin="round" />
        <path d="M5.75 15.8125H12.9375" stroke="currentColor" stroke-width="1.4375"
            stroke-linecap="round" stroke-linejoin="round" />
        <path d="M5.75 12.9375H10.0625" stroke="currentColor" stroke-width="1.4375"
            stroke-linecap="round" stroke-linejoin="round" />
    </symbol>
    <symbol id="cross">
        <path
            d="M6.96967 16.4697C6.67678 16.7626 6.67678 17.2374 6.96967 17.5303C7.26256 17.8232 7.73744 17.8232 8.03033 17.5303L6.96967 16.4697ZM13.0303 12.5303C13.3232 12.2374 13.3232 11.7626 13.0303 11.4697C12.7374 11.1768 12.2626 11.1768 11.9697 11.4697L13.0303 12.5303ZM11.9697 11.4697C11.6768 11.7626 11.6768 12.2374 11.9697 12.5303C12.2626 12.8232 12.7374 12.8232 13.0303 12.5303L11.9697 11.4697ZM18.0303 7.53033C18.3232 7.23744 18.3232 6.76256 18.0303 6.46967C17.7374 6.17678 17.2626 6.17678 16.9697 6.46967L18.0303 7.53033ZM13.0303 11.4697C12.7374 11.1768 12.2626 11.1768 11.9697 11.4697C11.6768 11.7626 11.6768 12.2374 11.9697 12.5303L13.0303 11.4697ZM16.9697 17.5303C17.2626 17.8232 17.7374 17.8232 18.0303 17.5303C18.3232 17.2374 18.3232 16.7626 18.0303 16.4697L16.9697 17.5303ZM11.9697 12.5303C12.2626 12.8232 12.7374 12.8232 13.0303 12.5303C13.3232 12.2374 13.3232 11.7626 13.0303 11.4697L11.9697 12.5303ZM8.03033 6.46967C7.73744 6.17678 7.26256 6.17678 6.96967 6.46967C6.67678 6.76256 6.67678 7.23744 6.96967 7.53033L8.03033 6.46967ZM8.03033 17.5303L13.0303 12.5303L11.9697 11.4697L6.96967 16.4697L8.03033 17.5303ZM13.0303 12.5303L18.0303 7.53033L16.9697 6.46967L11.9697 11.4697L13.0303 12.5303ZM11.9697 12.5303L16.9697 17.5303L18.0303 16.4697L13.0303 11.4697L11.9697 12.5303ZM13.0303 11.4697L8.03033 6.46967L6.96967 7.53033L11.9697 12.5303L13.0303 11.4697Z"
            fill="currentColor" />
    </symbol>
    <symbol id="burger-menu">
        <path d="M4 18L20 18" stroke="currentColor" stroke-width="2" stroke-linecap="round" />
        <path d="M4 12L20 12" stroke="currentColor" stroke-width="2" stroke-linecap="round" />
        <path d="M4 6L20 6" stroke="currentColor" stroke-width="2" stroke-linecap="round" />
    </symbol>
    <symbol id="closed-eye">
        <path fill="currentColor" xmlns="http://www.w3.org/2000/svg"
            d="M8 2.5a9.77 9.77 0 0 0-2.53.32l1 1.05A8.78 8.78 0 0 1 8 3.75 6.91 6.91 0 0 1 13.4 6a7.2 7.2 0 0 1 1.27 2 7.2 7.2 0 0 1-1.27 2c-.12.13-.24.26-.37.38l.89.89A8.24 8.24 0 0 0 16 8a8.11 8.11 0 0 0-8-5.5zm5 9.56-.9-.9-6.97-6.91-1-1-1.19-1.19-.88.88 1 1A8.25 8.25 0 0 0 0 8a8.11 8.11 0 0 0 8 5.5 9.05 9.05 0 0 0 3.82-.79l1.24 1.23.88-.88-1-1zM6.66 7.54l1.67 1.67a1.47 1.47 0 0 1-.36 0A1.35 1.35 0 0 1 6.55 8a1.07 1.07 0 0 1 .11-.46zM8 12.25A6.91 6.91 0 0 1 2.6 10a7.2 7.2 0 0 1-1.27-2A7.2 7.2 0 0 1 2.6 6 6.49 6.49 0 0 1 4 4.84l1.74 1.79A2.33 2.33 0 0 0 5.3 8 2.59 2.59 0 0 0 8 10.5a2.78 2.78 0 0 0 1.32-.33l1.58 1.58a8 8 0 0 1-2.9.5z" />
    </symbol>
    <symbol id="open-eye">
        <path
            d="M8 5.5A2.59 2.59 0 0 0 5.33 8 2.59 2.59 0 0 0 8 10.5 2.59 2.59 0 0 0 10.67 8 2.59 2.59 0 0 0 8 5.5zm0 3.75A1.35 1.35 0 0 1 6.58 8 1.35 1.35 0 0 1 8 6.75 1.35 1.35 0 0 1 9.42 8 1.35 1.35 0 0 1 8 9.25z"
            fill="currentColor" />
        <path
            d="M8 2.5A8.11 8.11 0 0 0 0 8a8.11 8.11 0 0 0 8 5.5A8.11 8.11 0 0 0 16 8a8.11 8.11 0 0 0-8-5.5zm5.4 7.5A6.91 6.91 0 0 1 8 12.25 6.91 6.91 0 0 1 2.6 10a7.2 7.2 0 0 1-1.27-2A7.2 7.2 0 0 1 2.6 6 6.91 6.91 0 0 1 8 3.75 6.91 6.91 0 0 1 13.4 6a7.2 7.2 0 0 1 1.27 2 7.2 7.2 0 0 1-1.27 2z"
            fill="currentColor" />
    </symbol>
    <symbol id="filter">
        <path fill-rule="evenodd" clip-rule="evenodd"
            d="M4.42288 3.28125C4.03274 3.28137 3.70602 3.49458 3.70602 3.49458C3.37929 3.70779 3.22208 4.06486 3.22208 4.06486C3.06487 4.42192 3.12822 4.80688 3.12822 4.80688C3.19157 5.19184 3.45491 5.47969 3.45491 5.47969L8.84288 11.4089L8.84361 11.4093C8.84456 11.4091 8.8446 11.4042 8.8446 11.4042L8.84457 17.809C8.84826 18.1759 9.0353 18.4838 9.0353 18.4838C9.22234 18.7917 9.54036 18.9609 9.54036 18.9609C9.85839 19.1302 10.2182 19.1134 10.2182 19.1134C10.5781 19.0966 10.879 18.8984 10.879 18.8984L13.5066 17.1494C13.7809 16.9716 13.9393 16.6768 13.9393 16.6768C14.0976 16.3821 14.0945 16.0475 14.0945 16.0475L14.0946 11.4107L19.4857 5.47806C19.7476 5.19184 19.8109 4.80688 19.8109 4.80688C19.8743 4.42191 19.7171 4.06485 19.7171 4.06485C19.5599 3.70779 19.2331 3.49458 19.2331 3.49458C18.9064 3.28137 18.5163 3.28125 18.5163 3.28125H4.42288ZM9.81423 10.5262L4.4233 4.59375L18.5159 4.59375L18.5144 4.59538L13.1311 10.5196C12.7771 10.8984 12.7821 11.4105 12.7821 11.4105L12.7821 16.0552L12.7808 16.056L12.7794 16.0568L10.1571 17.8023L10.157 11.4169C10.162 10.8984 9.81423 10.5262 9.81423 10.5262Z"
            fill="currentColor" />
    </symbol>
    <symbol id="download">
        <path
            d="M8.48867 8.55974L8.48833 8.5594C8.36526 8.43633 8.19834 8.36719 8.02429 8.36719C7.85024 8.36719 7.68332 8.43633 7.56025 8.5594C7.43718 8.68247 7.36804 8.84939 7.36804 9.02344C7.36804 9.19748 7.43718 9.3644 7.56025 9.48748L11.0056 12.9328C11.1286 13.0559 11.2956 13.125 11.4696 13.125C11.6437 13.125 11.8106 13.0559 11.9336 12.9328L15.3787 9.48772L15.379 9.48748C15.502 9.36441 15.5712 9.19749 15.5712 9.02344C15.5712 9.01293 15.5709 9.00241 15.5704 8.99191C15.5626 8.82896 15.4943 8.67476 15.379 8.5594C15.2559 8.43633 15.089 8.36719 14.9149 8.36719C14.7409 8.36719 14.5739 8.43633 14.4509 8.5594L14.4506 8.55964L11.4696 11.5407L8.48867 8.55974Z"
            fill="currentColor" />
        <path
            d="M10.8134 3.28125L10.8134 12.4687C10.8134 12.8312 11.1072 13.125 11.4696 13.125C11.832 13.125 12.1259 12.8312 12.1259 12.4688L12.1259 3.28125C12.1259 2.91881 11.832 2.625 11.4696 2.625C11.1072 2.625 10.8134 2.91881 10.8134 3.28125Z"
            fill="currentColor" />
        <path
            d="M4.9071 17.0625V12.4688C4.9071 12.1063 4.61329 11.8125 4.25085 11.8125C3.88842 11.8125 3.5946 12.1063 3.5946 12.4688V17.0625C3.5946 17.6062 3.97903 17.9906 3.97903 17.9906C4.36345 18.375 4.9071 18.375 4.9071 18.375H18.0321C18.5758 18.375 18.9602 17.9906 18.9602 17.9906C19.3446 17.6062 19.3446 17.0625 19.3446 17.0625V12.4688C19.3446 12.1063 19.0508 11.8125 18.6884 11.8125C18.3259 11.8125 18.0321 12.1063 18.0321 12.4688V17.0625H4.9071Z"
            fill="currentColor" />
    </symbol>
    <symbol id="arrow-right">
        <path d="M7.43719 4L6.49719 4.94L9.55053 8L6.49719 11.06L7.43719 12L11.4372 8L7.43719 4Z"
            fill="currentColor" />
    </symbol>
    <symbol id="double-arrow-right">
        <path d="M4.77057 4L3.83057 4.94L6.8839 8L3.83057 11.06L4.77057 12L8.77057 8L4.77057 4Z"
            fill="currentColor" />
        <path d="M9.16388 4L8.22388 4.94L11.2772 8L8.22388 11.06L9.16388 12L13.1639 8L9.16388 4Z"
            fill="currentColor" />
    </symbol>
    <symbol id="arrow-left">
        <path d="M10.5572 12L11.4972 11.06L8.44386 8L11.4972 4.94L10.5572 4L6.55719 8L10.5572 12Z"
            fill="currentColor" />
    </symbol>
    <symbol id="double-arrow-left">
        <path d="M12.2238 12L13.1638 11.06L10.1105 8L13.1638 4.94L12.2238 4L8.22382 8L12.2238 12Z"
            fill="currentColor" />
        <path d="M7.83051 12L8.77051 11.06L5.71717 8L8.77051 4.94L7.83051 4L3.83051 8L7.83051 12Z"
            fill="currentColor" />
    </symbol>
    <symbol id="calendar">
        <path
            d="M5.625 2.5V4.375M14.375 2.5V4.375M2.5 15.625V6.25C2.5 5.75272 2.69754 5.27581 3.04917 4.92417C3.40081 4.57254 3.87772 4.375 4.375 4.375H15.625C16.1223 4.375 16.5992 4.57254 16.9508 4.92417C17.3025 5.27581 17.5 5.75272 17.5 6.25V15.625M2.5 15.625C2.5 16.1223 2.69754 16.5992 3.04917 16.9508C3.40081 17.3025 3.87772 17.5 4.375 17.5H15.625C16.1223 17.5 16.5992 17.3025 16.9508 16.9508C17.3025 16.5992 17.5 16.1223 17.5 15.625M2.5 15.625V9.375C2.5 8.87772 2.69754 8.40081 3.04917 8.04917C3.40081 7.69754 3.87772 7.5 4.375 7.5H15.625C16.1223 7.5 16.5992 7.69754 16.9508 8.04917C17.3025 8.40081 17.5 8.87772 17.5 9.375V15.625"
            stroke="currentColor" stroke-width="1.5" stroke-linecap="round" stroke-linejoin="round" />
    </symbol>
    <symbol id="camera">
        <path fill-rule="evenodd" clip-rule="evenodd"
            d="M21.6235 20.1365C21.6235 20.1365 20.9535 20.8065 20.006 20.8065H4.75601C4.75601 20.8065 3.80849 20.8065 3.1385 20.1365C3.1385 20.1365 2.46851 19.4666 2.46851 18.519V7.84404C2.46851 7.84404 2.46851 6.89653 3.1385 6.22654C3.1385 6.22654 3.80849 5.55654 4.75601 5.55654H7.39793L8.69657 3.60858C8.83798 3.39646 9.07606 3.26904 9.331 3.26904H15.431C15.6859 3.26904 15.924 3.39646 16.0654 3.60858L17.3641 5.55654H20.006C20.006 5.55654 20.9535 5.55654 21.6235 6.22654C21.6235 6.22654 22.2935 6.89653 22.2935 7.84404V18.519C22.2935 18.519 22.2935 19.4666 21.6235 20.1365ZM20.5452 19.0582C20.5452 19.0582 20.7685 18.8349 20.7685 18.519V7.84404C20.7685 7.84404 20.7685 7.52821 20.5452 7.30487C20.5452 7.30487 20.3218 7.08154 20.006 7.08154H16.956C16.7011 7.08154 16.463 6.95413 16.3216 6.742L15.0229 4.79404H9.73908L8.44044 6.742C8.29903 6.95413 8.06095 7.08154 7.80601 7.08154H4.75601C4.75601 7.08154 4.44017 7.08154 4.21684 7.30487C4.21684 7.30487 3.99351 7.5282 3.99351 7.84404V18.519C3.99351 18.519 3.99351 18.8349 4.21684 19.0582C4.21684 19.0582 4.44017 19.2815 4.75601 19.2815H20.006C20.006 19.2815 20.3218 19.2815 20.5452 19.0582Z"
            fill="currentColor" />
        <path fill-rule="evenodd" clip-rule="evenodd"
            d="M12.381 8.60654C12.381 8.60654 14.1181 8.60654 15.3464 9.83486C15.3464 9.83486 16.5748 11.0632 16.5748 12.8003C16.5748 12.8003 16.5748 14.5374 15.3464 15.7657C15.3464 15.7657 14.1181 16.994 12.381 16.994C12.381 16.994 10.6439 16.994 9.41558 15.7657C9.41558 15.7657 8.18725 14.5374 8.18725 12.8003C8.18725 12.8003 8.18725 11.0632 9.41558 9.83486C9.41558 9.83486 10.6439 8.60654 12.381 8.60654ZM12.381 10.1315C12.381 10.1315 11.2756 10.1315 10.4939 10.9132C10.4939 10.9132 9.71225 11.6949 9.71225 12.8003C9.71225 12.8003 9.71226 13.9057 10.4939 14.6874C10.4939 14.6874 11.2756 15.469 12.381 15.469C12.381 15.469 13.4864 15.469 14.2681 14.6874C14.2681 14.6874 15.0498 13.9057 15.0498 12.8003C15.0498 12.8003 15.0498 11.6949 14.2681 10.9132C14.2681 10.9132 13.4864 10.1315 12.381 10.1315Z"
            fill="currentColor" />
    </symbol>
    <symbol id="pencil">
        <path fill-rule="evenodd" clip-rule="evenodd"
            d="M4.5 21.8H8.6894L8.69063 21.8C8.69063 21.8 8.98612 21.8005 9.25954 21.6882C9.25954 21.6882 9.53418 21.5754 9.74464 21.366L20.996 10.1147C20.996 10.1147 21.2066 9.90726 21.323 9.62929C21.323 9.62929 21.4394 9.35132 21.4394 9.04997C21.4394 9.04997 21.4394 8.74862 21.323 8.47064C21.323 8.47064 21.2066 8.19267 20.9919 7.98122L16.8147 3.80401C16.8147 3.80401 16.6073 3.59337 16.3293 3.47698C16.3293 3.47698 16.0514 3.3606 15.75 3.3606C15.75 3.3606 15.4487 3.3606 15.1707 3.47698C15.1707 3.47698 14.8927 3.59337 14.6813 3.80809L3.4353 15.054C3.4353 15.054 3.22457 15.2658 3.11177 15.5404C3.11177 15.5404 2.99897 15.8151 3.00001 16.112L3 20.3C3 20.3 3 20.9213 3.43934 21.3606C3.43934 21.3606 3.87868 21.8 4.5 21.8ZM19.9353 9.05401L8.68935 20.3H4.5L4.5 16.1106L15.75 4.8606L15.754 4.86467L19.9394 9.04997L19.9353 9.05401Z"
            fill="currentColor" />
        <path
            d="M17.4693 12.58C17.6099 12.7206 17.8011 12.8 18 12.8C18.1989 12.8 18.3897 12.721 18.5303 12.5804C18.671 12.4397 18.75 12.249 18.75 12.05C18.75 11.8511 18.671 11.6604 18.5303 11.5197L13.2804 6.26981C13.1397 6.12907 12.9489 6.05005 12.75 6.05005C12.5511 6.05005 12.3603 6.12907 12.2197 6.26972C12.079 6.41037 12 6.60114 12 6.80005C12 6.99896 12.079 7.18973 12.2197 7.33038L17.4693 12.58Z"
            fill="currentColor" />
    </symbol>
    <symbol id="file-done">
        <path
            d="M25.4583 18.4167L20.0416 23.8334L16.2499 20.0417L17.8749 18.4167L20.0416 20.5834L23.8333 16.7917L25.4583 18.4167ZM14.1808 21.6667H6.49992V4.33341H14.0833V9.75008H19.4999V14.1809C19.8574 14.1267 20.2149 14.0834 20.5833 14.0834C20.9516 14.0834 21.3091 14.1267 21.6666 14.1809V8.66675L15.1666 2.16675H6.49992C5.92528 2.16675 5.37418 2.39502 4.96785 2.80135C4.56153 3.20768 4.33325 3.75878 4.33325 4.33341V21.6667C4.33325 22.8692 5.29742 23.8334 6.49992 23.8334H14.9608C14.5816 23.1726 14.3108 22.4467 14.1808 21.6667Z"
            fill="currentColor" />
    </symbol>
    <symbol id="reload">
        <path
            d="M8.625 8.5H4.125C3.85978 8.5 3.60543 8.39464 3.41789 8.20711C3.23036 8.01957 3.125 7.76522 3.125 7.5V3C3.125 2.73478 3.23036 2.48043 3.41789 2.29289C3.60543 2.10536 3.85978 2 4.125 2C4.39022 2 4.64457 2.10536 4.83211 2.29289C5.01964 2.48043 5.125 2.73478 5.125 3V6.5H8.625C8.89022 6.5 9.14457 6.60536 9.33211 6.79289C9.51964 6.98043 9.625 7.23478 9.625 7.5C9.625 7.76522 9.51964 8.01957 9.33211 8.20711C9.14457 8.39464 8.89022 8.5 8.625 8.5Z"
            fill="currentColor" />
        <path
            d="M20.9999 13.0001C20.7347 13.0001 20.4803 12.8947 20.2928 12.7072C20.1053 12.5197 19.9999 12.2653 19.9999 12.0001C20.0007 10.2396 19.4203 8.52815 18.349 7.13121C17.2777 5.73427 15.7752 4.72999 14.0747 4.27423C12.3743 3.81846 10.571 3.93668 8.94458 4.61055C7.3182 5.28442 5.9597 6.47625 5.0799 8.0011C4.94703 8.23065 4.72841 8.39801 4.47214 8.46636C4.21588 8.53472 3.94295 8.49848 3.7134 8.3656C3.48386 8.23273 3.3165 8.01411 3.24814 7.75784C3.17979 7.50157 3.21603 7.22865 3.3489 6.9991C4.44916 5.09334 6.14759 3.60395 8.18072 2.76199C10.2138 1.92003 12.468 1.77257 14.5935 2.34249C16.719 2.91241 18.597 4.16784 19.9361 5.91403C21.2753 7.66022 22.0007 9.79954 21.9999 12.0001C21.9999 12.2653 21.8945 12.5197 21.707 12.7072C21.5195 12.8947 21.2651 13.0001 20.9999 13.0001ZM19.8749 22.0001C19.6097 22.0001 19.3553 21.8947 19.1678 21.7072C18.9803 21.5197 18.8749 21.2653 18.8749 21.0001V17.5001H15.3749C15.1097 17.5001 14.8553 17.3947 14.6678 17.2072C14.4803 17.0197 14.3749 16.7653 14.3749 16.5001C14.3749 16.2349 14.4803 15.9805 14.6678 15.793C14.8553 15.6055 15.1097 15.5001 15.3749 15.5001H19.8749C20.1401 15.5001 20.3945 15.6055 20.582 15.793C20.7695 15.9805 20.8749 16.2349 20.8749 16.5001V21.0001C20.8749 21.2653 20.7695 21.5197 20.582 21.7072C20.3945 21.8947 20.1401 22.0001 19.8749 22.0001Z"
            fill="currentColor" />
        <path
            d="M12 22C9.34865 21.9974 6.80665 20.9429 4.93186 19.0681C3.05707 17.1934 2.00265 14.6514 2 12C2 11.7348 2.10536 11.4804 2.29289 11.2929C2.48043 11.1054 2.73478 11 3 11C3.26522 11 3.51957 11.1054 3.70711 11.2929C3.89464 11.4804 4 11.7348 4 12C3.99924 13.7605 4.57956 15.472 5.65091 16.8689C6.72225 18.2658 8.22472 19.2701 9.92516 19.7259C11.6256 20.1816 13.4289 20.0634 15.0553 19.3896C16.6817 18.7157 18.0402 17.5239 18.92 15.999C18.9858 15.8853 19.0733 15.7858 19.1776 15.7059C19.2819 15.6261 19.4009 15.5676 19.5278 15.5337C19.6547 15.4999 19.787 15.4914 19.9172 15.5087C20.0473 15.5259 20.1728 15.5687 20.2865 15.6345C20.4002 15.7003 20.4997 15.7878 20.5796 15.8921C20.6594 15.9964 20.7179 16.1154 20.7518 16.2423C20.7856 16.3692 20.7941 16.5015 20.7768 16.6317C20.7596 16.7618 20.7168 16.8873 20.651 17.001C19.7717 18.5176 18.5102 19.7773 16.9923 20.6544C15.4744 21.5315 13.7531 21.9955 12 22Z"
            fill="currentColor" />
    </symbol>
    <symbol id="resize">
        <path
            d="M0.835849 7.2538C1.29757 7.2538 1.6717 6.87956 1.6717 6.41795V2.85412L7.05512 8.23642C7.21839 8.39958 7.43225 8.48116 7.64612 8.48116C7.8601 8.48116 8.07407 8.39958 8.23723 8.23631C8.56366 7.90989 8.56366 7.38063 8.23712 7.05431L2.85348 1.67189H6.41809C6.8797 1.67189 7.25394 1.29765 7.25394 0.836043C7.25394 0.374432 6.87981 0.00019455 6.41809 0.00019455H0.835849C0.374126 0.00019455 0 0.374432 0 0.836043V6.41806C0 6.87956 0.374126 7.2538 0.835849 7.2538Z"
            fill="currentColor" />
        <path
            d="M23.1641 16.7462C22.7024 16.7462 22.3282 17.1204 22.3282 17.582V21.146L16.7791 15.5968C16.4525 15.2704 15.9234 15.2704 15.597 15.5968C15.2705 15.9233 15.2705 16.4525 15.597 16.7788L21.146 22.3279H17.5823C17.1206 22.3279 16.7464 22.7021 16.7464 23.1637C16.7464 23.6253 17.1206 23.9996 17.5823 23.9996H23.1642C23.6259 23.9996 24 23.6253 24 23.1637V17.582C23.9999 17.1204 23.6257 16.7462 23.1641 16.7462Z"
            fill="currentColor" />
        <path
            d="M7.22087 15.5968L1.67228 21.1458V17.582C1.67228 17.1204 1.29816 16.7462 0.836436 16.7462C0.374713 16.7462 0.000587463 17.1204 0.000587463 17.582V23.1639C0.000587463 23.6255 0.374713 23.9998 0.836436 23.9998H6.41812C6.87973 23.9998 7.25397 23.6255 7.25397 23.1639C7.25397 22.7023 6.87985 22.3281 6.41812 22.3281H2.85429L8.40298 16.7788C8.72941 16.4524 8.72941 15.9231 8.40287 15.5967C8.07667 15.2704 7.54741 15.2704 7.22087 15.5968Z"
            fill="currentColor" />
        <path
            d="M23.1643 0.000236511H17.5824C17.1206 0.000236511 16.7465 0.374474 16.7465 0.836085C16.7465 1.2977 17.1206 1.67193 17.5824 1.67193H21.1463L15.7637 7.05491C15.4372 7.38134 15.4372 7.9106 15.7638 8.23702C15.9269 8.40018 16.1409 8.48176 16.3548 8.48176C16.5686 8.48176 16.7826 8.40007 16.9459 8.23691L22.3285 2.85394V6.41799C22.3285 6.87961 22.7026 7.25384 23.1644 7.25384C23.6261 7.25384 24.0002 6.87961 24.0002 6.41799V0.836085C24.0001 0.374362 23.6259 0.000236511 23.1643 0.000236511Z"
            fill="currentColor" />
    </symbol>
    <symbol id="resize-minus">
        <path
            d="M22.7716 22.57L14.2273 14.1716M14.2273 14.1716L14.3698 21.0303M14.2273 14.1716L21.2051 14.3116"
            stroke="currentColor" stroke-width="1.5" stroke-linecap="round" stroke-linejoin="round" />
        <path
            d="M0.935722 22.57L9.47992 14.1716M9.47992 14.1716L2.50216 14.3116M9.47992 14.1716L9.33752 21.0303"
            stroke="currentColor" stroke-width="1.5" stroke-linecap="round" stroke-linejoin="round" />
        <path
            d="M22.7716 1.10685L14.2273 9.50522M14.2273 9.50522L21.2051 9.36524M14.2273 9.50522L14.3698 2.64655"
            stroke="currentColor" stroke-width="1.5" stroke-linecap="round" stroke-linejoin="round" />
        <path
            d="M0.935722 1.10685L9.47993 9.50522M9.47993 9.50522L9.33753 2.64655M9.47993 9.50522L2.50216 9.36523"
            stroke="currentColor" stroke-width="1.5" stroke-linecap="round" stroke-linejoin="round" />
    </symbol>
    <symbol id="arrow-left">
        <path
            d="M7.75484 11.6508L12.9432 16.8299C13.0284 16.9158 13.1298 16.984 13.2415 17.0306C13.3532 17.0771 13.473 17.1011 13.594 17.1011C13.715 17.1011 13.8348 17.0771 13.9465 17.0306C14.0582 16.984 14.1596 16.9158 14.2448 16.8299C14.4156 16.6582 14.5114 16.4258 14.5114 16.1837C14.5114 15.9415 14.4156 15.7092 14.2448 15.5374L9.70734 10.9541L14.2448 6.41659C14.4156 6.24484 14.5114 6.01251 14.5114 5.77034C14.5114 5.52817 14.4156 5.29584 14.2448 5.12409C14.1599 5.03748 14.0587 4.96857 13.947 4.92137C13.8353 4.87416 13.7153 4.8496 13.594 4.84909C13.4727 4.8496 13.3527 4.87416 13.241 4.92137C13.1293 4.96857 13.0281 5.03748 12.9432 5.12409L7.75484 10.3033C7.66179 10.3891 7.58753 10.4933 7.53674 10.6092C7.48595 10.7252 7.45973 10.8504 7.45973 10.977C7.45973 11.1036 7.48595 11.2288 7.53674 11.3448C7.58753 11.4607 7.66179 11.5649 7.75484 11.6508Z"
            fill="currentColor" />
    </symbol>
    <symbol id="info-sign">
        <path
            d="M10 18C14.1421 18 17.5 14.6421 17.5 10.5C17.5 6.35786 14.1421 3 10 3C5.85786 3 2.5 6.35786 2.5 10.5C2.5 14.6421 5.85786 18 10 18Z"
            stroke="currentColor" stroke-width="1.25" stroke-linecap="round" stroke-linejoin="round" />
        <path d="M10 7.16675H10.01" stroke="currentColor" stroke-width="2" stroke-linecap="round"
            stroke-linejoin="round" />
        <path d="M10 10V12.8333L10 14" stroke="currentColor" stroke-width="1.25"
            stroke-linecap="round" stroke-linejoin="round" />
    </symbol>
    <symbol id="copy-file">
        <path fill-rule="evenodd" clip-rule="evenodd"
            d="M19.5 3.60559C20.0746 3.60559 20.6257 3.83386 21.0321 4.24019C21.4384 4.64652 21.6667 5.19762 21.6667 5.77226V16.6056C21.6667 17.1802 21.4384 17.7313 21.0321 18.1377C20.6257 18.544 20.0746 18.7723 19.5 18.7723H18.4167V10.1056C18.4167 8.95632 17.9601 7.85412 17.1475 7.04146C16.3348 6.2288 15.2326 5.77226 14.0833 5.77226H10.8333C10.4531 5.77194 10.0795 5.8717 9.75 6.06151V5.77226C9.75 5.19762 9.97827 4.64652 10.3846 4.24019C10.7909 3.83386 11.342 3.60559 11.9167 3.60559H19.5Z"
            fill="currentColor" />
        <path fill-rule="evenodd" clip-rule="evenodd"
            d="M8.66665 7.99742V12.2723H4.54998C4.63084 12.1038 4.73317 11.9465 4.8544 11.8043L7.5194 8.69509C7.81829 8.34692 8.22 8.10263 8.66665 7.99742ZM10.8333 7.93892V12.2723C10.8333 12.8469 10.605 13.398 10.1987 13.8043C9.79238 14.2107 9.24128 14.4389 8.66665 14.4389H4.33331V20.9389C4.33331 21.5136 4.56159 22.0647 4.96791 22.471C5.37424 22.8773 5.92534 23.1056 6.49998 23.1056H14.0833C14.6579 23.1056 15.209 22.8773 15.6154 22.471C16.0217 22.0647 16.25 21.5136 16.25 20.9389V10.1056C16.25 9.53096 16.0217 8.97986 15.6154 8.57353C15.209 8.1672 14.6579 7.93892 14.0833 7.93892H10.8333Z"
            fill="currentColor" />
    </symbol>
    <symbol id="link">
        <path
            d="M8.46498 20.535C6.44282 20.535 4.61976 19.3169 3.84578 17.4487C3.07181 15.5806 3.49931 13.4301 4.92898 12L7.05098 9.87801L8.46498 11.292L6.34398 13.413C5.58604 14.1709 5.29004 15.2757 5.56746 16.311C5.84488 17.3464 6.6536 18.1551 7.68896 18.4325C8.72432 18.71 9.82904 18.4139 10.587 17.656L12.708 15.535L14.122 16.95L12.001 19.071C11.0651 20.0115 9.79184 20.5387 8.46498 20.535ZM9.17198 16.242L7.75798 14.828L14.829 7.757L16.243 9.171L9.17298 16.241L9.17198 16.242ZM16.951 14.121L15.536 12.707L17.657 10.586C18.4252 9.83033 18.7292 8.72067 18.4532 7.67899C18.1773 6.6373 17.3638 5.82365 16.3222 5.54745C15.2806 5.27125 14.1708 5.57492 13.415 6.343L11.293 8.464L9.87898 7.05L12.001 4.928C13.9561 2.98997 17.11 2.99688 19.0565 4.94345C21.0031 6.89003 21.01 10.0439 19.072 11.999L16.951 14.12V14.121Z"
            fill="currentColor" />
    </symbol>
    <symbol id="share">
        <path
            d="M3 12C3 13.654 4.346 15 6 15C6.794 15 7.512 14.685 8.049 14.18L14.04 17.604C14.022 17.734 14 17.864 14 18C14 19.654 15.346 21 17 21C18.654 21 20 19.654 20 18C20 16.346 18.654 15 17 15C16.206 15 15.488 15.315 14.951 15.82L8.96 12.397C8.978 12.266 9 12.136 9 12C9 11.864 8.978 11.734 8.96 11.603L14.951 8.18C15.488 8.685 16.206 9 17 9C18.654 9 20 7.654 20 6C20 4.346 18.654 3 17 3C15.346 3 14 4.346 14 6C14 6.136 14.022 6.266 14.04 6.397L8.049 9.82C7.496 9.29468 6.76273 9.00123 6 9C4.346 9 3 10.346 3 12Z"
            fill="currentColor" />
    </symbol>
    <symbol id="facebook" viewBox="0 0 24 24">
        <path
            fill="currentColor"
            d="M12 2.03998C6.5 2.03998 2 6.52998 2 12.06C2 17.06 5.66 21.21 10.44 21.96V14.96H7.9V12.06H10.44V9.84998C10.44 7.33998 11.93 5.95998 14.22 5.95998C15.31 5.95998 16.45 6.14998 16.45 6.14998V8.61998H15.19C13.95 8.61998 13.56 9.38998 13.56 10.18V12.06H16.34L15.89 14.96H13.56V21.96C15.9164 21.5878 18.0622 20.3855 19.6099 18.57C21.1576 16.7546 22.0054 14.4456 22 12.06C22 6.52998 17.5 2.03998 12 2.03998Z" />
    </symbol>
    <symbol id="whatsapp" viewBox="0 0 20 20">
        <g id="Page-1" stroke="none" stroke-width="1" fill="none" fill-rule="evenodd">
            <g id="Dribbble-Light-Preview" transform="translate(-300.000000, -7599.000000)"
                fill="#000000">
                <g id="icons" transform="translate(56.000000, 160.000000)">
                    <path
                        d="M259.821,7453.12124 C259.58,7453.80344 258.622,7454.36761 257.858,7454.53266 C257.335,7454.64369 256.653,7454.73172 254.355,7453.77943 C251.774,7452.71011 248.19,7448.90097 248.19,7446.36621 C248.19,7445.07582 248.934,7443.57337 250.235,7443.57337 C250.861,7443.57337 250.999,7443.58538 251.205,7444.07952 C251.446,7444.6617 252.034,7446.09613 252.104,7446.24317 C252.393,7446.84635 251.81,7447.19946 251.387,7447.72462 C251.252,7447.88266 251.099,7448.05372 251.27,7448.3478 C251.44,7448.63589 252.028,7449.59418 252.892,7450.36341 C254.008,7451.35771 254.913,7451.6748 255.237,7451.80984 C255.478,7451.90987 255.766,7451.88687 255.942,7451.69881 C256.165,7451.45774 256.442,7451.05762 256.724,7450.6635 C256.923,7450.38141 257.176,7450.3464 257.441,7450.44643 C257.62,7450.50845 259.895,7451.56477 259.991,7451.73382 C260.062,7451.85686 260.062,7452.43903 259.821,7453.12124 M254.002,7439 L253.997,7439 L253.997,7439 C248.484,7439 244,7443.48535 244,7449 C244,7451.18666 244.705,7453.21526 245.904,7454.86076 L244.658,7458.57687 L248.501,7457.3485 C250.082,7458.39482 251.969,7459 254.002,7459 C259.515,7459 264,7454.51465 264,7449 C264,7443.48535 259.515,7439 254.002,7439"
                        id="whatsapp-[#128]">

                    </path>
                </g>
            </g>
        </g>
    </symbol>
    <symbol id="arrow-line-right" viewBox="0 0 30 30">
        <path fill-rule="evenodd" clip-rule="evenodd"
            d="M17.4854 24.8508L26.4247 15.9115L26.4247 14.6475L17.4854 5.70825L16.2214 6.97226L23.6338 14.3847L4.97043 14.3847L4.97043 16.1726L23.6356 16.1726L16.2214 23.585L17.4854 24.8508Z"
            fill="currentColor" />
    </symbol>
    <symbol id="computer" viewBox="0 0 27 27">
        <path
            d="M10.5769 4.18921H21.9519C22.3829 4.18921 22.7962 4.36041 23.101 4.66516C23.4057 4.96991 23.5769 5.38323 23.5769 5.81421V15.5642C23.5769 15.9952 23.4057 16.4085 23.101 16.7133C22.7962 17.018 22.3829 17.1892 21.9519 17.1892H13.8269V18.8142H17.0769V20.4392H13.8269V22.0642H19.5144C19.7299 22.0642 19.9366 21.9786 20.0889 21.8262C20.2413 21.6739 20.3269 21.4672 20.3269 21.2517C20.3269 21.0362 20.2413 20.8296 20.0889 20.6772C19.9366 20.5248 19.7299 20.4392 19.5144 20.4392H18.7019V18.8142H21.9519C22.8139 18.8142 23.6405 18.4718 24.25 17.8623C24.8595 17.2528 25.2019 16.4262 25.2019 15.5642V5.81421C25.2019 4.95226 24.8595 4.12561 24.25 3.51611C23.6405 2.90662 22.8139 2.56421 21.9519 2.56421H10.5769C9.71495 2.56421 8.8883 2.90662 8.27881 3.51611C7.66931 4.12561 7.3269 4.95226 7.3269 5.81421V9.06421H8.9519V5.81421C8.9519 5.38323 9.12311 4.96991 9.42786 4.66516C9.7326 4.36041 10.1459 4.18921 10.5769 4.18921ZM6.5144 20.4392C6.29892 20.4392 6.09225 20.5248 5.93988 20.6772C5.78751 20.8296 5.7019 21.0362 5.7019 21.2517C5.7019 21.4672 5.78751 21.6739 5.93988 21.8262C6.09225 21.9786 6.29892 22.0642 6.5144 22.0642H8.1394C8.35489 22.0642 8.56155 21.9786 8.71393 21.8262C8.8663 21.6739 8.9519 21.4672 8.9519 21.2517C8.9519 21.0362 8.8663 20.8296 8.71393 20.6772C8.56155 20.5248 8.35489 20.4392 8.1394 20.4392H6.5144ZM4.8894 10.6892C4.24294 10.6892 3.62295 10.946 3.16583 11.4031C2.70871 11.8603 2.4519 12.4802 2.4519 13.1267V22.8767C2.4519 23.5232 2.70871 24.1432 3.16583 24.6003C3.62295 25.0574 4.24294 25.3142 4.8894 25.3142H9.7644C10.4109 25.3142 11.0309 25.0574 11.488 24.6003C11.9451 24.1432 12.2019 23.5232 12.2019 22.8767V13.1267C12.2019 12.4802 11.9451 11.8603 11.488 11.4031C11.0309 10.946 10.4109 10.6892 9.7644 10.6892H4.8894ZM4.8894 12.3142H9.7644C9.97989 12.3142 10.1866 12.3998 10.3389 12.5522C10.4913 12.7046 10.5769 12.9112 10.5769 13.1267V22.8767C10.5769 23.0922 10.4913 23.2989 10.3389 23.4512C10.1866 23.6036 9.97989 23.6892 9.7644 23.6892H4.8894C4.67392 23.6892 4.46725 23.6036 4.31488 23.4512C4.16251 23.2989 4.0769 23.0922 4.0769 22.8767V13.1267C4.0769 12.9112 4.16251 12.7046 4.31488 12.5522C4.46725 12.3998 4.67392 12.3142 4.8894 12.3142Z"
            fill="currentColor" stroke="currentColor" stroke-width="0.3" />
    </symbol>
    <symbol id="user-box" viewBox="0 0 28 28">
        <path
            d="M11.1883 3.25757C8.1908 3.32503 6.44018 3.61174 5.24387 4.80355C4.19598 5.84695 3.8463 7.31423 3.72937 9.66637M17.6331 3.25757C20.6306 3.32503 22.3812 3.61174 23.5776 4.80355C24.6254 5.84695 24.9751 7.31423 25.0921 9.66637M17.6331 24.6203C20.6306 24.5528 22.3812 24.2661 23.5776 23.0743C24.6254 22.0309 24.9751 20.5636 25.0921 18.2114M11.1883 24.6203C8.1908 24.5528 6.44018 24.2661 5.24387 23.0743C4.19598 22.0309 3.8463 20.5636 3.72937 18.2114M9.35113 19.5607C11.9731 16.815 16.8202 16.6857 19.4703 19.5607M17.216 11.128C17.216 12.6796 15.9567 13.9389 14.4017 13.9389C14.0322 13.9395 13.6662 13.8672 13.3247 13.7262C12.9831 13.5852 12.6727 13.3783 12.4112 13.1172C12.1497 12.8561 11.9423 12.5461 11.8007 12.2047C11.6592 11.8634 11.5863 11.4975 11.5863 11.128C11.5863 9.57643 12.8456 8.31715 14.4017 8.31715C14.7711 8.31671 15.137 8.38909 15.4784 8.53015C15.8199 8.67121 16.1301 8.87819 16.3915 9.13925C16.6529 9.4003 16.8602 9.71032 17.0017 10.0516C17.1432 10.3928 17.216 10.7586 17.216 11.128Z"
            stroke="currentColor" stroke-width="1.51787" stroke-linecap="round"
            stroke-linejoin="round" />
    </symbol>
    <symbol id="link-chain" viewBox="0 0 23 24">
        <path
            d="M9.42029 12.8741C9.82161 13.4106 10.3336 13.8545 10.9216 14.1757C11.5096 14.497 12.1598 14.688 12.8281 14.7359C13.4963 14.7837 14.1671 14.6873 14.7949 14.4531C15.4226 14.219 15.9927 13.8525 16.4664 13.3787L19.2698 10.5752C20.121 9.69397 20.5919 8.5137 20.5813 7.28859C20.5706 6.06349 20.0792 4.89158 19.2129 4.02527C18.3466 3.15896 17.1747 2.66756 15.9496 2.65691C14.7245 2.64627 13.5442 3.11723 12.663 3.96835L11.0556 5.56633"
            stroke="currentColor" stroke-width="1.51855" stroke-linecap="round"
            stroke-linejoin="round" />
        <path
            d="M13.1583 11.0051C12.757 10.4686 12.245 10.0247 11.657 9.70341C11.069 9.38218 10.4188 9.19115 9.75052 9.14329C9.08222 9.09542 8.41145 9.19185 7.7837 9.42602C7.15595 9.66019 6.5859 10.0266 6.11222 10.5005L3.30875 13.304C2.45762 14.1852 1.98666 15.3655 1.99731 16.5906C2.00795 17.8157 2.49935 18.9876 3.36566 19.8539C4.23197 20.7202 5.40388 21.2116 6.62899 21.2222C7.85409 21.2329 9.03436 20.7619 9.9156 19.9108L11.5136 18.3128"
            stroke="currentColor" stroke-width="1.51855" stroke-linecap="round"
            stroke-linejoin="round" />
    </symbol>
    <symbol id="news-paper" viewBox="0 0 27 27">
        <path
            d="M21.5121 22.3291H5.26501C4.4943 22.3292 3.75279 22.0343 3.19259 21.505C2.63238 20.9757 2.29596 20.2521 2.25232 19.4826L2.24768 19.3118V5.8499C2.24762 5.32059 2.44849 4.811 2.80971 4.4241C3.17093 4.0372 3.66555 3.80186 4.19362 3.76563L4.3366 3.76099H18.7269C19.2562 3.76092 19.7658 3.9618 20.1527 4.32302C20.5396 4.68423 20.775 5.17886 20.8112 5.70693L20.8158 5.8499V6.54621H22.4405C22.9699 6.54614 23.4795 6.74702 23.8664 7.10824C24.2532 7.46946 24.4886 7.96408 24.5248 8.49215L24.5295 8.63513V19.3118C24.5295 20.0825 24.2346 20.824 23.7053 21.3842C23.176 21.9444 22.4524 22.2809 21.683 22.3245L21.5121 22.3291ZM5.26501 20.9365H21.5121C21.92 20.9365 22.313 20.783 22.613 20.5066C22.9129 20.2302 23.0979 19.8511 23.1313 19.4446L23.1369 19.3118V8.63513C23.1368 8.46686 23.0759 8.3043 22.9653 8.17749C22.8547 8.05068 22.7019 7.9682 22.5352 7.94532L22.4405 7.93882H20.8158V17.9192C20.8158 18.0875 20.7549 18.25 20.6443 18.3768C20.5337 18.5037 20.3809 18.5861 20.2142 18.609L20.1195 18.6155C19.9513 18.6155 19.7887 18.5546 19.6619 18.444C19.5351 18.3334 19.4526 18.1806 19.4297 18.0139L19.4232 17.9192V5.8499C19.4232 5.68164 19.3623 5.51907 19.2517 5.39226C19.1411 5.26545 18.9883 5.18298 18.8216 5.1601L18.7269 5.1536H4.3366C4.16834 5.1536 4.00577 5.21454 3.87896 5.32514C3.75215 5.43573 3.66967 5.58851 3.64679 5.75521L3.64029 5.8499V19.3118C3.64031 19.7196 3.79364 20.1124 4.06985 20.4123C4.34606 20.7123 4.72495 20.8974 5.13131 20.931L5.26501 20.9365ZM9.90333 12.1204C10.5439 12.1204 11.0638 12.6403 11.0638 13.2809V16.5266C11.0638 17.1672 10.5439 17.6871 9.90333 17.6871H6.65762C6.01702 17.6871 5.49711 17.1672 5.49711 16.5266V13.2809C5.49711 12.6403 6.01702 12.1204 6.65762 12.1204H9.90333ZM13.6207 16.2945H16.8664C17.0428 16.2945 17.2126 16.3616 17.3415 16.482C17.4704 16.6024 17.5488 16.7673 17.5609 16.9433C17.5729 17.1193 17.5177 17.2934 17.4063 17.4302C17.295 17.5671 17.1359 17.6566 16.9611 17.6806L16.8664 17.6871H13.6207C13.4443 17.687 13.2744 17.62 13.1455 17.4996C13.0166 17.3791 12.9382 17.2143 12.9262 17.0383C12.9142 16.8622 12.9694 16.6882 13.0807 16.5514C13.1921 16.4145 13.3512 16.325 13.526 16.301L13.6207 16.2945ZM9.67216 13.513H6.88972V16.2945H9.67216V13.513ZM13.6207 12.1204H16.8664C17.0428 12.1204 17.2126 12.1874 17.3415 12.3079C17.4704 12.4283 17.5488 12.5932 17.5609 12.7692C17.5729 12.9452 17.5177 13.1192 17.4063 13.2561C17.295 13.3929 17.1359 13.4824 16.9611 13.5065L16.8664 13.513H13.6207C13.443 13.5148 13.2714 13.4486 13.1409 13.328C13.0104 13.2073 12.931 13.0414 12.9189 12.8641C12.9068 12.6869 12.9629 12.5117 13.0758 12.3744C13.1886 12.2372 13.3497 12.1483 13.526 12.1259L13.6207 12.1204ZM6.1897 7.93604H16.8664C17.0428 7.93609 17.2126 8.00311 17.3415 8.12355C17.4704 8.24399 17.5488 8.40887 17.5609 8.58488C17.5729 8.76089 17.5177 8.9349 17.4063 9.07176C17.295 9.20861 17.1359 9.2981 16.9611 9.32215L16.8664 9.32865H6.1897C6.01336 9.32836 5.8437 9.26118 5.71496 9.14066C5.58623 9.02015 5.50802 8.85528 5.49612 8.67934C5.48422 8.5034 5.53951 8.3295 5.65084 8.19275C5.76217 8.05599 5.92124 7.96657 6.09593 7.94253L6.1897 7.93604Z"
            fill="currentColor" />
    </symbol>
    <symbol id="youtube" viewBox="0 0 24 24">
        <path fill-rule="evenodd" clip-rule="evenodd"
            d="M11.9176 4.35266C12.7172 4.35266 13.5374 4.37324 14.3324 4.40691L15.2714 4.4518L16.1702 4.50511L17.0119 4.56216L17.7807 4.62202C18.6151 4.68551 19.4004 5.04142 19.9982 5.62705C20.596 6.21268 20.9679 6.99047 21.0485 7.82342L21.0859 8.2209L21.1561 9.07199C21.2215 9.95394 21.2702 10.9154 21.2702 11.8348C21.2702 12.7541 21.2215 13.7156 21.1561 14.5975L21.0859 15.4486L21.0485 15.8461C20.9679 16.6792 20.5958 17.4571 19.9978 18.0427C19.3999 18.6284 18.6144 18.9842 17.7798 19.0475L17.0129 19.1064L16.1711 19.1644L15.2714 19.2177L14.3324 19.2626C13.5279 19.2975 12.7228 19.3155 11.9176 19.3168C11.1123 19.3155 10.3072 19.2975 9.50271 19.2626L8.56371 19.2177L7.66492 19.1644L6.82319 19.1064L6.0544 19.0475C5.21998 18.984 4.43472 18.6281 3.83694 18.0425C3.23916 17.4568 2.86721 16.679 2.7866 15.8461L2.74919 15.4486L2.67904 14.5975C2.60781 13.6783 2.56975 12.7567 2.56494 11.8348C2.56494 10.9154 2.61357 9.95394 2.67904 9.07199L2.74919 8.2209L2.7866 7.82342C2.86718 6.99062 3.239 6.21295 3.83658 5.62733C4.43417 5.04172 5.21921 4.68572 6.05347 4.62202L6.82132 4.56216L7.66305 4.50511L8.56278 4.4518L9.50178 4.40691C10.3066 4.37205 11.112 4.35396 11.9176 4.35266ZM10.047 9.56675V14.1028C10.047 14.5349 10.5147 14.8042 10.8888 14.5891L14.8169 12.3211C14.9023 12.2719 14.9733 12.201 15.0227 12.1156C15.0721 12.0303 15.0981 11.9334 15.0981 11.8348C15.0981 11.7361 15.0721 11.6392 15.0227 11.5539C14.9733 11.4685 14.9023 11.3976 14.8169 11.3484L10.8888 9.08134C10.8034 9.03208 10.7066 9.00615 10.6081 9.00616C10.5096 9.00618 10.4128 9.03214 10.3275 9.08143C10.2421 9.13073 10.1713 9.20162 10.1221 9.28698C10.0729 9.37233 10.047 9.46915 10.047 9.56768V9.56675Z"
            fill="currentColor" />
    </symbol>
    <symbol id="support" viewBox="0 0 26 25">
        <path
            d="M12.9998 22.8554L12.7493 19.8492H12.4988C10.1272 19.8492 8.11472 19.0225 6.46132 17.3691C4.80791 15.7157 3.9812 13.7032 3.9812 11.3316C3.9812 8.96009 4.80791 6.94761 6.46132 5.2942C8.11472 3.64079 10.1272 2.81409 12.4988 2.81409C13.6845 2.81409 14.7912 3.03521 15.8186 3.47745C16.8461 3.9197 17.7479 4.52929 18.5242 5.30623C19.3005 6.08316 19.9097 6.98502 20.352 8.0118C20.7942 9.03859 21.0157 10.1452 21.0163 11.3316C21.0163 12.5842 20.8119 13.7867 20.4031 14.9391C19.9942 16.0915 19.4344 17.1603 18.7236 18.1457C18.0128 19.1311 17.1694 20.0246 16.1934 20.8262C15.2174 21.6279 14.1528 22.3043 12.9998 22.8554ZM12.4737 16.818C12.7576 16.818 12.9998 16.7178 13.2002 16.5173C13.4006 16.3169 13.5008 16.0748 13.5008 15.7908C13.5008 15.5069 13.4006 15.2648 13.2002 15.0643C12.9998 14.8639 12.7576 14.7637 12.4737 14.7637C12.1898 14.7637 11.9476 14.8639 11.7472 15.0643C11.5468 15.2648 11.4466 15.5069 11.4466 15.7908C11.4466 16.0748 11.5468 16.3169 11.7472 16.5173C11.9476 16.7178 12.1898 16.818 12.4737 16.818ZM11.7472 13.6364H13.2503C13.2503 13.1354 13.3004 12.7846 13.4006 12.5842C13.5008 12.3838 13.8182 12.0164 14.3526 11.482C14.6532 11.1813 14.9037 10.8557 15.1041 10.5049C15.3046 10.1542 15.4048 9.77845 15.4048 9.37762C15.4048 8.52586 15.1168 7.88688 14.541 7.46067C13.9651 7.03446 13.2844 6.82168 12.4988 6.82235C11.7639 6.82235 11.146 7.02711 10.6449 7.43662C10.1439 7.84613 9.79319 8.34282 9.59277 8.92669L10.9957 9.47783C11.0792 9.19391 11.2378 8.91433 11.4716 8.6391C11.7055 8.36386 12.0478 8.22591 12.4988 8.22524C12.9497 8.22458 13.2881 8.34983 13.5139 8.60102C13.7397 8.8522 13.8522 9.12777 13.8516 9.42772C13.8516 9.71164 13.768 9.9665 13.601 10.1923C13.434 10.4181 13.2336 10.6476 12.9998 10.8807C12.4153 11.3818 12.0605 11.7786 11.9356 12.0712C11.8107 12.3638 11.7479 12.8855 11.7472 13.6364Z"
            fill="currentColor" />
    </symbol>
    <symbol id="dzen" viewBox="0 0 50 50">
        <path fill='currentColor'
            d="M46.894 23.986c.004 0 .007 0 .011 0 .279 0 .545-.117.734-.322.192-.208.287-.487.262-.769C46.897 11.852 38.154 3.106 27.11 2.1c-.28-.022-.562.069-.77.262-.208.192-.324.463-.321.746C26.193 17.784 28.129 23.781 46.894 23.986zM46.894 26.014c-18.765.205-20.7 6.202-20.874 20.878-.003.283.113.554.321.746.186.171.429.266.679.266.03 0 .061-.001.091-.004 11.044-1.006 19.787-9.751 20.79-20.795.025-.282-.069-.561-.262-.769C47.446 26.128 47.177 26.025 46.894 26.014zM22.823 2.105C11.814 3.14 3.099 11.884 2.1 22.897c-.025.282.069.561.262.769.189.205.456.321.734.321.004 0 .008 0 .012 0 18.703-.215 20.634-6.209 20.81-20.875.003-.283-.114-.555-.322-.747C23.386 2.173 23.105 2.079 22.823 2.105zM3.107 26.013c-.311-.035-.555.113-.746.321-.192.208-.287.487-.262.769.999 11.013 9.715 19.757 20.724 20.792.031.003.063.004.094.004.25 0 .492-.094.678-.265.208-.192.325-.464.322-.747C23.741 32.222 21.811 26.228 3.107 26.013z" />
    </symbol>
    <symbol id="rutube" viewBox="0 0 112 98">
        <path
            d="M59.0071 59.2582H17.5723V42.6574H59.0071C61.4274 42.6574 63.1103 43.0845 63.9548 43.8304C64.7994 44.5763 65.3226 45.9597 65.3226 47.9806V53.9414C65.3226 56.0707 64.7994 57.4541 63.9548 58.2C63.1103 58.9459 61.4274 59.2646 59.0071 59.2646V59.2582ZM61.8497 27.0064H0V98H17.5723V74.9028H49.9562L65.3226 98H85L68.058 74.7945C74.3041 73.8573 77.1089 71.9193 79.422 68.7253C81.7351 65.5314 82.8949 60.4249 82.8949 53.6099V48.2866C82.8949 44.2448 82.4726 41.0508 81.7351 38.6028C80.9977 36.1547 79.7371 34.0254 77.9471 32.1129C76.0563 30.3023 73.9511 29.0273 71.4237 28.173C68.8963 27.4271 65.7385 27 61.8497 27V27.0064Z"
            fill="currentColor" />
        <path
            d="M98.5 27C105.956 27 112 20.9558 112 13.5C112 6.04416 105.956 0 98.5 0C91.0442 0 85 6.04416 85 13.5C85 20.9558 91.0442 27 98.5 27Z"
            fill="currentColor" />
    </symbol>
    <symbol id="paper-clip">
        <g clip-path="url(#clip0_608_1265)">
            <path
                d="M17.8545 9.15961C17.4589 8.92301 16.9499 9.05102 16.7133 9.4466L12.4366 16.5973C11.2557 18.5719 8.69815 19.2179 6.72023 18.035C4.7423 16.852 4.1016 14.2932 5.28256 12.3186L10.4154 3.73641C11.1232 2.553 12.6574 2.1643 13.8442 2.87407C15.0309 3.58385 15.4143 5.11943 14.7065 6.30283L10.4278 13.4569C10.1912 13.8525 9.67889 13.9785 9.28665 13.7439C8.89442 13.5093 8.76307 12.9983 8.99966 12.6027L12.4222 6.88017C12.6588 6.48459 12.5275 5.97363 12.1352 5.73904C11.7396 5.50245 11.2307 5.63045 10.9941 6.02604L7.57153 11.7486C6.86175 12.9354 7.24711 14.4676 8.43386 15.1774C9.62062 15.8871 11.1528 15.5018 11.8626 14.315L16.1393 7.16433C17.3169 5.18776 16.6729 2.6269 14.6983 1.44595C12.7237 0.264988 10.1662 0.911048 8.98528 2.88562L3.85243 11.4678C2.19828 14.2335 3.1017 17.8143 5.86409 19.4665C8.62648 21.1186 12.2106 20.2172 13.8627 17.4548L18.1414 10.3007C18.378 9.90515 18.25 9.3962 17.8545 9.15961Z"
                fill="currentColor" />
        </g>
        <defs>
            <clipPath id="clip0_608_1265">
                <rect width="20" height="20" fill="white" transform="translate(0.879761 0.884277)" />
            </clipPath>
        </defs>
    </symbol>
    <symbol id="download">
        <g clip-path="url(#clip0_824_1773)">
            <path
                d="M6.51907 8.55974L6.51873 8.5594C6.39566 8.43633 6.22874 8.36719 6.05469 8.36719C5.88064 8.36719 5.71372 8.43633 5.59065 8.5594C5.46758 8.68247 5.39844 8.84939 5.39844 9.02344C5.39844 9.19748 5.46758 9.3644 5.59065 9.48748L9.03596 12.9328C9.15903 13.0559 9.32595 13.125 9.5 13.125C9.67405 13.125 9.84097 13.0559 9.96404 12.9328L13.4091 9.48772L13.4094 9.48748C13.5324 9.36441 13.6016 9.19749 13.6016 9.02344C13.6016 9.01293 13.6013 9.00241 13.6008 8.99191C13.593 8.82896 13.5247 8.67476 13.4094 8.5594C13.2863 8.43633 13.1194 8.36719 12.9453 8.36719C12.7713 8.36719 12.6043 8.43633 12.4813 8.5594L12.481 8.55964L9.5 11.5407L6.51907 8.55974Z"
                fill="currentColor" />
            <path
                d="M8.84375 3.28125L8.84375 12.4687C8.84375 12.8312 9.13756 13.125 9.5 13.125C9.86244 13.125 10.1563 12.8312 10.1563 12.4688L10.1563 3.28125C10.1563 2.91881 9.86244 2.625 9.5 2.625C9.13756 2.625 8.84375 2.91881 8.84375 3.28125Z"
                fill="currentColor" />
            <path
                d="M2.9375 17.0625V12.4688C2.9375 12.1063 2.64369 11.8125 2.28125 11.8125C1.91881 11.8125 1.625 12.1063 1.625 12.4688V17.0625C1.625 17.6062 2.00942 17.9906 2.00942 17.9906C2.39384 18.375 2.9375 18.375 2.9375 18.375H16.0625C16.6062 18.375 16.9906 17.9906 16.9906 17.9906C17.375 17.6062 17.375 17.0625 17.375 17.0625V12.4688C17.375 12.1063 17.0812 11.8125 16.7188 11.8125C16.3563 11.8125 16.0625 12.1063 16.0625 12.4688V17.0625H2.9375Z"
                fill="currentColor" />
        </g>
        <defs>
            <clipPath id="clip0_824_1773">
                <rect width="20" height="20" fill="white" transform="translate(0 0.884277)" />
            </clipPath>
        </defs>
    </symbol>
    <symbol id="admin" viewBox="0 -0.5 25 25">
        <path fill-rule="evenodd" clip-rule="evenodd"
            d="M9.918 10.0005H7.082C6.66587 9.99708 6.26541 10.1591 5.96873 10.4509C5.67204 10.7427 5.50343 11.1404 5.5 11.5565V17.4455C5.5077 18.3117 6.21584 19.0078 7.082 19.0005H9.918C10.3341 19.004 10.7346 18.842 11.0313 18.5502C11.328 18.2584 11.4966 17.8607 11.5 17.4445V11.5565C11.4966 11.1404 11.328 10.7427 11.0313 10.4509C10.7346 10.1591 10.3341 9.99708 9.918 10.0005Z"
            stroke="currentColor" stroke-width="1.5" stroke-linecap="round" stroke-linejoin="round" />
        <path fill-rule="evenodd" clip-rule="evenodd"
            d="M9.918 4.0006H7.082C6.23326 3.97706 5.52559 4.64492 5.5 5.4936V6.5076C5.52559 7.35629 6.23326 8.02415 7.082 8.0006H9.918C10.7667 8.02415 11.4744 7.35629 11.5 6.5076V5.4936C11.4744 4.64492 10.7667 3.97706 9.918 4.0006Z"
            stroke="currentColor" stroke-width="1.5" stroke-linecap="round" stroke-linejoin="round" />
        <path fill-rule="evenodd" clip-rule="evenodd"
            d="M15.082 13.0007H17.917C18.3333 13.0044 18.734 12.8425 19.0309 12.5507C19.3278 12.2588 19.4966 11.861 19.5 11.4447V5.55666C19.4966 5.14054 19.328 4.74282 19.0313 4.45101C18.7346 4.1592 18.3341 3.9972 17.918 4.00066H15.082C14.6659 3.9972 14.2654 4.1592 13.9687 4.45101C13.672 4.74282 13.5034 5.14054 13.5 5.55666V11.4447C13.5034 11.8608 13.672 12.2585 13.9687 12.5503C14.2654 12.8421 14.6659 13.0041 15.082 13.0007Z"
            stroke="currentColor" stroke-width="1.5" stroke-linecap="round" stroke-linejoin="round" />
        <path fill-rule="evenodd" clip-rule="evenodd"
            d="M15.082 19.0006H17.917C18.7661 19.0247 19.4744 18.3567 19.5 17.5076V16.4936C19.4744 15.6449 18.7667 14.9771 17.918 15.0006H15.082C14.2333 14.9771 13.5256 15.6449 13.5 16.4936V17.5066C13.525 18.3557 14.2329 19.0241 15.082 19.0006Z"
            stroke="currentColor" stroke-width="1.5" stroke-linecap="round" stroke-linejoin="round" />
    </symbol>
    <symbol id="house" viewBox="0 0 21 21">
        <path
            d="M10.9016 1.45283C10.7852 1.36205 10.6417 1.31274 10.4941 1.31274C10.3464 1.31274 10.203 1.36205 10.0866 1.45283L0.65625 8.80612L1.47197 9.83774L2.625 8.93868V17.0624C2.62569 17.4103 2.7642 17.7437 3.01019 17.9897C3.25618 18.2357 3.58962 18.3742 3.9375 18.3749H17.0625C17.4104 18.3742 17.7438 18.2357 17.9898 17.9897C18.2358 17.7437 18.3743 17.4103 18.375 17.0624V8.94458L19.528 9.84365L20.3438 8.81202L10.9016 1.45283ZM11.8125 17.0624H9.1875V11.8124H11.8125V17.0624ZM13.125 17.0624V11.8124C13.125 11.4643 12.9867 11.1305 12.7406 10.8843C12.4944 10.6382 12.1606 10.4999 11.8125 10.4999H9.1875C8.8394 10.4999 8.50556 10.6382 8.25942 10.8843C8.01328 11.1305 7.875 11.4643 7.875 11.8124V17.0624H3.9375V7.91559L10.5 2.8034L17.0625 7.92215V17.0624H13.125Z"
            fill="currentColor" />
    </symbol>
    <symbol id="investment" viewBox="0 0 21 21">
        <path d="M10.5 10.5C9.98082 10.5 9.47331 10.654 9.04163 10.9424C8.60995 11.2308 8.2735 11.6408 8.07482 12.1205C7.87614 12.6001 7.82415 13.1279 7.92544 13.6371C8.02672 14.1463 8.27673 14.614 8.64384 14.9812C9.01096 15.3483 9.47869 15.5983 9.98789 15.6996C10.4971 15.8008 11.0249 15.7489 11.5045 15.5502C11.9842 15.3515 12.3942 15.015 12.6826 14.5834C12.971 14.1517 13.125 13.6442 13.125 13.125C13.125 12.4288 12.8484 11.7611 12.3562 11.2688C11.8639 10.7766 11.1962 10.5 10.5 10.5ZM10.5 14C10.3269 14 10.1578 13.9487 10.0139 13.8525C9.86998 13.7564 9.75783 13.6197 9.69161 13.4598C9.62538 13.3 9.60805 13.124 9.64181 12.9543C9.67558 12.7846 9.75891 12.6287 9.88128 12.5063C10.0037 12.3839 10.1596 12.3006 10.3293 12.2668C10.499 12.2331 10.675 12.2504 10.8348 12.3166C10.9947 12.3828 11.1314 12.495 11.2275 12.6389C11.3237 12.7828 11.375 12.9519 11.375 13.125C11.375 13.3571 11.2828 13.5796 11.1187 13.7437C10.9546 13.9078 10.7321 14 10.5 14ZM9.87875 8.49625C9.96197 8.57591 10.0601 8.63835 10.1675 8.68C10.2722 8.72629 10.3855 8.7502 10.5 8.7502C10.6145 8.7502 10.7278 8.72629 10.8325 8.68C10.9399 8.63835 11.038 8.57591 11.1213 8.49625L13.125 6.5275C13.2944 6.35809 13.3896 6.12833 13.3896 5.88875C13.3896 5.64917 13.2944 5.41941 13.125 5.25C12.9556 5.08059 12.7258 4.98542 12.4862 4.98542C12.2467 4.98542 12.0169 5.08059 11.8475 5.25L11.375 5.76625V2.625C11.375 2.39294 11.2828 2.17038 11.1187 2.00628C10.9546 1.84219 10.7321 1.75 10.5 1.75C10.2679 1.75 10.0454 1.84219 9.88128 2.00628C9.71719 2.17038 9.625 2.39294 9.625 2.625V5.76625L9.1525 5.25C8.98309 5.08059 8.75333 4.98542 8.51375 4.98542C8.27417 4.98542 8.04441 5.08059 7.875 5.25C7.70559 5.41941 7.61042 5.64917 7.61042 5.88875C7.61042 6.12833 7.70559 6.35809 7.875 6.5275L9.87875 8.49625ZM16.625 13.125C16.625 12.9519 16.5737 12.7828 16.4775 12.6389C16.3814 12.495 16.2447 12.3828 16.0848 12.3166C15.925 12.2504 15.749 12.2331 15.5793 12.2668C15.4096 12.3006 15.2537 12.3839 15.1313 12.5063C15.0089 12.6287 14.9256 12.7846 14.8918 12.9543C14.8581 13.124 14.8754 13.3 14.9416 13.4598C15.0078 13.6197 15.12 13.7564 15.2639 13.8525C15.4078 13.9487 15.5769 14 15.75 14C15.9821 14 16.2046 13.9078 16.3687 13.7437C16.5328 13.5796 16.625 13.3571 16.625 13.125ZM17.5 7H14.875C14.6429 7 14.4204 7.09219 14.2563 7.25628C14.0922 7.42038 14 7.64294 14 7.875C14 8.10706 14.0922 8.32962 14.2563 8.49372C14.4204 8.65781 14.6429 8.75 14.875 8.75H17.5C17.7321 8.75 17.9546 8.84219 18.1187 9.00628C18.2828 9.17038 18.375 9.39294 18.375 9.625V16.625C18.375 16.8571 18.2828 17.0796 18.1187 17.2437C17.9546 17.4078 17.7321 17.5 17.5 17.5H3.5C3.26794 17.5 3.04538 17.4078 2.88128 17.2437C2.71719 17.0796 2.625 16.8571 2.625 16.625V9.625C2.625 9.39294 2.71719 9.17038 2.88128 9.00628C3.04538 8.84219 3.26794 8.75 3.5 8.75H6.125C6.35706 8.75 6.57962 8.65781 6.74372 8.49372C6.90781 8.32962 7 8.10706 7 7.875C7 7.64294 6.90781 7.42038 6.74372 7.25628C6.57962 7.09219 6.35706 7 6.125 7H3.5C2.80381 7 2.13613 7.27656 1.64384 7.76884C1.15156 8.26113 0.875 8.92881 0.875 9.625V16.625C0.875 17.3212 1.15156 17.9889 1.64384 18.4812C2.13613 18.9734 2.80381 19.25 3.5 19.25H17.5C18.1962 19.25 18.8639 18.9734 19.3562 18.4812C19.8484 17.9889 20.125 17.3212 20.125 16.625V9.625C20.125 8.92881 19.8484 8.26113 19.3562 7.76884C18.8639 7.27656 18.1962 7 17.5 7ZM4.375 13.125C4.375 13.2981 4.42632 13.4672 4.52246 13.6111C4.61861 13.755 4.75527 13.8672 4.91515 13.9334C5.07504 13.9996 5.25097 14.0169 5.4207 13.9832C5.59044 13.9494 5.74635 13.8661 5.86872 13.7437C5.99109 13.6213 6.07443 13.4654 6.10819 13.2957C6.14195 13.126 6.12462 12.95 6.05839 12.7902C5.99217 12.6303 5.88002 12.4936 5.73612 12.3975C5.59223 12.3013 5.42306 12.25 5.25 12.25C5.01794 12.25 4.79538 12.3422 4.63128 12.5063C4.46719 12.6704 4.375 12.8929 4.375 13.125Z" fill="currentColor"/>
        <path d="M15.75 5.25C16.8875 5.36287 17.6531 5.6175 18.2245 6.19238C19.25 7.224 19.25 8.88475 19.25 12.2054C19.25 15.526 19.25 17.1867 18.2245 18.2184C17.199 19.25 15.5496 19.25 12.25 19.25H8.75C5.45038 19.25 3.80012 19.25 2.7755 18.2175C1.75 17.1876 1.75 15.5269 1.75 12.2062C1.75 8.88562 1.75 7.22488 2.7755 6.19325C3.34687 5.6175 4.1125 5.36287 5.25 5.25" stroke="currentColor" stroke-width="1.3125" stroke-linecap="round" stroke-linejoin="round"/>
        <path d="M8.3123 4.8125C8.7428 5.25525 9.8873 7 10.4998 7M10.4998 7C11.1123 7 12.2568 5.25525 12.6873 4.8125M10.4998 7V1.75M16.1943 12.25H16.1855M4.8193 12.25H4.81055M12.6873 12.25C12.6873 12.8302 12.4568 13.3866 12.0466 13.7968C11.6364 14.207 11.08 14.4375 10.4998 14.4375C9.91964 14.4375 9.36324 14.207 8.953 13.7968C8.54276 13.3866 8.3123 12.8302 8.3123 12.25C8.3123 11.6698 8.54276 11.1134 8.953 10.7032C9.36324 10.293 9.91964 10.0625 10.4998 10.0625C11.08 10.0625 11.6364 10.293 12.0466 10.7032C12.4568 11.1134 12.6873 11.6698 12.6873 12.25Z" stroke="currentColor" stroke-width="1.3125" stroke-linecap="round" stroke-linejoin="round"/>
    </symbol>
    <symbol id="folder" viewBox="0 0 21 21">
        <path d="M17.0312 7.9825C16.6987 7.9825 16.4375 7.72125 16.4375 7.38875V2.78125C16.4375 2.44875 16.1763 2.1875 15.8438 2.1875H5.15625C4.82375 2.1875 4.5625 2.44875 4.5625 2.78125V5.15625C4.5625 5.48875 4.30125 5.75 3.96875 5.75C3.63625 5.75 3.375 5.48875 3.375 5.15625V2.78125C3.375 1.79563 4.17063 1 5.15625 1H15.8438C16.8294 1 17.625 1.79563 17.625 2.78125V7.38875C17.625 7.72125 17.3638 7.9825 17.0312 7.9825Z" fill="currentColor"/>
        <path d="M18.2188 20H2.78125C1.79563 20 1 19.2044 1 18.2188V6.34375C1 5.35813 1.79563 4.5625 2.78125 4.5625H8.42188C8.61188 4.5625 8.79 4.64563 8.89687 4.8L10.5 6.9375H18.2188C19.2044 6.9375 20 7.73312 20 8.71875V18.2188C20 19.2044 19.2044 20 18.2188 20ZM2.78125 5.75C2.44875 5.75 2.1875 6.01125 2.1875 6.34375V18.2188C2.1875 18.5513 2.44875 18.8125 2.78125 18.8125H18.2188C18.5513 18.8125 18.8125 18.5513 18.8125 18.2188V8.71875C18.8125 8.38625 18.5513 8.125 18.2188 8.125H10.2031C10.1106 8.12694 10.019 8.10633 9.93628 8.06495C9.85352 8.02357 9.78208 7.96267 9.72812 7.8875L8.125 5.75H2.78125Z" fill="currentColor"/>
        <path d="M7.53125 16.4375H5.15625C4.82375 16.4375 4.5625 16.1762 4.5625 15.8438C4.5625 15.5112 4.82375 15.25 5.15625 15.25H7.53125C7.86375 15.25 8.125 15.5112 8.125 15.8438C8.125 16.1762 7.86375 16.4375 7.53125 16.4375Z" fill="currentColor"/>
    </symbol>
</svg>