<svg width="46" height="46" viewBox="0 0 46 46" fill="none" xmlns="http://www.w3.org/2000/svg">
    <rect width="46" height="46" rx="12" fill="white"/>
    <mask id="mask0_1_11" style="mask-type:luminance" maskUnits="userSpaceOnUse" x="12" y="12" width="22" height="22">
    <path d="M33.4354 12.96H12.4354V33.96H33.4354V12.96Z" fill="white"/>
    </mask>
    <g mask="url(#mask0_1_11)">
    <path d="M31.7956 27.9672H31.1843V27.1954C31.1843 25.3679 29.6975 23.8812 27.8701 23.8812H26.5865H23.6881V21.0268H25.5215C26.4256 21.0268 27.1613 20.2912 27.1613 19.3869V15.4065C27.1613 14.5023 26.4256 13.7666 25.5215 13.7666H20.6231C19.7189 13.7666 18.9833 14.5022 18.9833 15.4065V19.3869C18.9833 20.2911 19.7189 21.0267 20.6231 21.0267H22.4565V23.8811H19.5991H18.0281C16.2006 23.8811 14.7139 25.3679 14.7139 27.1953V27.9672H14.0753C13.171 27.9672 12.4354 28.7028 12.4354 29.607V31.5137C12.4354 32.4179 13.171 33.1535 14.0753 33.1535H16.584C17.4882 33.1535 18.2238 32.4179 18.2238 31.5137V29.607C18.2238 28.7028 17.4882 27.9672 16.584 27.9672H15.9455V27.1954C15.9455 26.047 16.8797 25.1128 18.028 25.1128H19.5991H22.4564V27.9672H21.8179C20.9136 27.9672 20.178 28.7028 20.178 29.607V31.5137C20.178 32.4179 20.9136 33.1535 21.8179 33.1535H24.3266C25.2308 33.1535 25.9664 32.4179 25.9664 31.5137V29.607C25.9664 28.7028 25.2308 27.9672 24.3266 27.9672H23.6881V25.1128H26.5866H27.8702C29.0185 25.1128 29.9528 26.047 29.9528 27.1954V27.9672H29.2868C28.3826 27.9672 27.647 28.7028 27.647 29.607V31.5137C27.647 32.4179 28.3826 33.1535 29.2868 33.1535H31.7956C32.6998 33.1535 33.4354 32.4179 33.4354 31.5137V29.607C33.4354 28.7028 32.6998 27.9672 31.7956 27.9672ZM16.5841 29.1988C16.8092 29.1988 16.9923 29.3819 16.9923 29.607V31.5137C16.9923 31.7388 16.8092 31.9219 16.5841 31.9219H14.0753C13.8502 31.9219 13.667 31.7388 13.667 31.5137V29.607C13.667 29.3819 13.8502 29.1988 14.0753 29.1988H16.5841ZM24.3267 29.1988C24.5518 29.1988 24.7349 29.3819 24.7349 29.607V31.5137C24.7349 31.7388 24.5518 31.9219 24.3267 31.9219H21.8179C21.5928 31.9219 21.4096 31.7388 21.4096 31.5137V29.607C21.4096 29.3819 21.5928 29.1988 21.8179 29.1988H24.3267ZM20.6231 19.7952C20.398 19.7952 20.2149 19.612 20.2149 19.3869V15.4065C20.2149 15.1814 20.398 14.9982 20.6231 14.9982H25.5214C25.7465 14.9982 25.9296 15.1813 25.9296 15.4065V19.3869C25.9296 19.612 25.7465 19.7952 25.5214 19.7952L20.6231 19.7952ZM32.2038 31.5137C32.2038 31.7388 32.0207 31.922 31.7956 31.922H29.2868C29.0617 31.922 28.8786 31.7388 28.8786 31.5137V29.6071C28.8786 29.382 29.0617 29.1988 29.2868 29.1988H31.7956C32.0207 29.1988 32.2038 29.3819 32.2038 29.6071V31.5137Z" fill="#1C1C1C"/>
    </g>
    </svg>
    